<svg xmlns="http://www.w3.org/2000/svg" viewBox="0 0 163.673 222.817"><defs><style>.a{fill:#fff;}</style></defs><g transform="translate(-353.948)"><g transform="translate(354.045 0)"><path class="a" d="M.388,21.8a1.076,1.076,0,0,1,.1-.582,1.792,1.792,0,0,1,.291-.416c.1-.166.194-.25.291-.416a.923.923,0,0,0,.1-.5,17.559,17.559,0,0,0-.194-2.246A18.145,18.145,0,0,0,.581,15.4c-.1-.749-.291-1.5-.388-2.246A17.559,17.559,0,0,1,0,10.909,1.532,1.532,0,0,1,.291,9.828,1.954,1.954,0,0,1,1.647,9.5a2.177,2.177,0,0,1,1.26.333,8.616,8.616,0,0,1,.969.832H4.07a10.586,10.586,0,0,0,1.163-.582c.581-.25,1.163-.582,1.744-.832.678-.333,1.26-.582,1.841-.832s.969-.5,1.163-.582a10.6,10.6,0,0,1,1.454-.582A4.605,4.605,0,0,1,12.985,7a1.653,1.653,0,0,1,.678.083c.194.083.194.25.194.582v.083A2.61,2.61,0,0,1,13.276,9a4.89,4.89,0,0,1-1.066.832,5.545,5.545,0,0,1-1.26.582,4.806,4.806,0,0,0-1.163.582c-.872.5-1.647.915-2.229,1.248s-1.066.582-1.55.832a4.418,4.418,0,0,0-.969.5c-.291.166-.485.25-.581.416v3.077a5.479,5.479,0,0,0,.485,2.162l10.272-4.159c.194-.083.388-.083.485-.166h.485a1.965,1.965,0,0,1,.581.083c.291.083.388.166.388.333a2.147,2.147,0,0,1-.678,1.58,12.149,12.149,0,0,1-1.647,1.248c-.678.416-1.357.665-2.035,1a17.971,17.971,0,0,0-1.841.749.659.659,0,0,1-.388.083c-.194,0-.291.083-.291.166L5.621,22.22c-.194.083-.194.166-.194.166v.582L6.4,29.124a2.053,2.053,0,0,1-.581,1.58,2.419,2.419,0,0,1-1.55.5,1.207,1.207,0,0,1-.485-.083.808.808,0,0,1-.485-.166C3.1,30.87,3,30.787,2.81,30.7a.592.592,0,0,1-.194-.416l-1.066-7.4c0-.083-.1-.166-.194-.25a1.337,1.337,0,0,0-.388-.25c-.1-.083-.291-.166-.388-.25A.318.318,0,0,1,.388,21.8Z" transform="translate(0 -1.095)"/><path class="a" d="M21.526,22.05a5.288,5.288,0,0,1-.388-.832,1.471,1.471,0,0,1-.194-.749,1.076,1.076,0,0,1,.1-.582,1.232,1.232,0,0,0,.1-.582,8.214,8.214,0,0,0-.1-1.58,9.815,9.815,0,0,0-.194-1.58c0-.083-.1-.166-.291-.166a1.758,1.758,0,0,1-.581-.25,2.524,2.524,0,0,1-.581-.416c-.194-.166-.194-.416-.194-.749a1.471,1.471,0,0,1,.194-.749,3.591,3.591,0,0,1,.485-.582,2.572,2.572,0,0,0,.485-.582,1.1,1.1,0,0,0,.194-.749v-.665c0-.333-.1-.665-.1-1.081v-2a3.778,3.778,0,0,1,.291-.582c.1-.166.194-.25.194-.333a.534.534,0,0,1,.388-.166c.194,0,.291-.083.581-.083a2.118,2.118,0,0,1,1.357.333,1.331,1.331,0,0,1,.581.665,2.141,2.141,0,0,1,.194.749.461.461,0,0,0,.194.416l3.2-2.412h.194a15.775,15.775,0,0,1,3.295-1.331A20.329,20.329,0,0,1,34.7,5a7.978,7.978,0,0,1,1.357.083,4.656,4.656,0,0,1,1.55.416,5.935,5.935,0,0,1,1.26.749,1.466,1.466,0,0,1,.485,1.081,9.814,9.814,0,0,1-.194,1.58c-.194.5-.388,1.081-.581,1.58l-.872,1.5a4.551,4.551,0,0,1-1.066,1.164,16.408,16.408,0,0,1-2.907,2.079c-1.744,1.164-4.264,2.828-7.752,5.073l21.125,1.164c.291,0,.678.083,1.163.083a8.65,8.65,0,0,1,1.454.166,5.377,5.377,0,0,1,1.26.416.981.981,0,0,1,.485,1,1.076,1.076,0,0,1-.1.582,1.186,1.186,0,0,1-.291.333,1.337,1.337,0,0,1-.388.25c-.1.083-.291.166-.388.333h-1.26c-.581-.083-1.163-.083-1.841-.166s-1.357-.166-2.229-.25-1.841-.166-2.907-.333C41,23.8,39.647,23.714,38.1,23.63s-3.392-.166-5.427-.166c-2.035-.083-4.458-.083-7.171-.083,0,0-.1,0-.1.083a.281.281,0,0,1-.1.166,14.008,14.008,0,0,0,.291,2.828,13.211,13.211,0,0,1,.291,2.745,1.411,1.411,0,0,1-.1.582,4.738,4.738,0,0,1-.194.582,2.32,2.32,0,0,1-.485.5.913.913,0,0,1-.678.166,1.412,1.412,0,0,1-.581-.083c-.194-.083-.485-.166-.678-.25-.194-.166-.388-.25-.581-.416a.686.686,0,0,1-.291-.5Zm3-8.317V15.48c0,.582.1,1.164.1,1.83h.194a.326.326,0,0,0,.194-.083c.1-.083.388-.166.872-.5.485-.25,1.163-.665,2.132-1.248s2.326-1.331,4.07-2.412a3.736,3.736,0,0,0,1.163-.915c.388-.416.775-.915,1.163-1.414a6,6,0,0,0,.872-1.5,4.153,4.153,0,0,0,.388-1.248c0-.25-.1-.416-.388-.416h-.678a8.65,8.65,0,0,0-1.454.166,17.465,17.465,0,0,0-2.035.749,25.508,25.508,0,0,0-2.81,1.663,44,44,0,0,0-3.779,2.828v.749Z" transform="translate(-0.594 -0.758)"/><path class="a" d="M54,24.264V20.6c0-1,0-2,.1-3.161,0-1.164.194-2.329.291-3.493.194-1.164.388-2.329.678-3.41a10.215,10.215,0,0,1,1.163-2.828A1.992,1.992,0,0,1,57.489,6.3a10.824,10.824,0,0,1,2.81-.5,4.026,4.026,0,0,1,2.035.5A4.169,4.169,0,0,1,63.787,7.63a10.311,10.311,0,0,1,1.066,1.663c.291.582.581,1.164.775,1.663v.166a8.631,8.631,0,0,1,.485,2.246c.1,1,.194,2.079.194,3.161s.1,2.162.1,3.161v2.329a9.565,9.565,0,0,1-.388,2.661,8.858,8.858,0,0,1-1.163,2.994,7.346,7.346,0,0,1-2.035,2.412,4.486,4.486,0,0,1-2.907,1,5.471,5.471,0,0,1-2.616-.665,6.95,6.95,0,0,1-1.938-1.663,9.6,9.6,0,0,1-1.163-2.162C54.194,25.761,54,25.013,54,24.264Zm4.264,2.578a1.865,1.865,0,0,0,.485.832,1.436,1.436,0,0,0,.969.416h.388a6.424,6.424,0,0,0,2.423-3.327,13.233,13.233,0,0,0,.581-3.909v-1.5a20.536,20.536,0,0,0-.194-2.246c-.1-.832-.194-1.747-.291-2.662s-.291-1.83-.388-2.661c-.194-.832-.388-1.5-.581-2.162a2.263,2.263,0,0,0-.872-1.248.281.281,0,0,0-.1.166.281.281,0,0,1-.1.166,10.84,10.84,0,0,0-1.647,2.661,20.652,20.652,0,0,0-1.163,3.992,22.393,22.393,0,0,0-.291,5.24A29.966,29.966,0,0,0,58.264,26.842Z" transform="translate(-1.671 -0.893)"/><path class="a" d="M69.488,29.265c-.1-2.828-.1-5.573-.194-8.317S69.1,15.375,69.1,12.63V7.141a2.584,2.584,0,0,1,.485-1,1.319,1.319,0,0,1,1.066-.333,2.564,2.564,0,0,1,1.357.416,4.686,4.686,0,0,1,.969.915l6.3,10.48c0,.083.1.166.291.416a4.958,4.958,0,0,0,.388.5l.1.083a.086.086,0,0,1,.1.083l.194-.333L84.12,7.058A2.721,2.721,0,0,0,84.7,5.893a7.357,7.357,0,0,1,.485-1.331l.581-1.248A2.4,2.4,0,0,1,86.931,2.4h.388a2.258,2.258,0,0,1,1.744.582A2.651,2.651,0,0,1,89.838,4.4a5.38,5.38,0,0,1,.194,1.747v1.58a4.888,4.888,0,0,0,.1,1,13.145,13.145,0,0,0,.194,1.747c.1.665.1,1.414.194,2.162s.1,1.5.194,2.162c0,.665.1,1.248.1,1.747a9.793,9.793,0,0,0,.1,1V17.7a10.8,10.8,0,0,0,.194,1.164c.1.5.194,1.081.291,1.663s.194,1.164.291,1.663a10.364,10.364,0,0,1,.194,1.081,1.889,1.889,0,0,0,.194.582c.1.25.194.5.291.832.1.25.194.582.291.832a2.954,2.954,0,0,1,.194.5,3.781,3.781,0,0,1-.485,1.331q-.291.5-1.454.5h-.678a2.068,2.068,0,0,1-.485-.416c-.291-.166-.388-.333-.388-.416l-.678-2.079-1.357-8.567V13.212c0-.5-.1-1.081-.1-1.58a8.513,8.513,0,0,0-.388-1.5l-.485.25-3.2,10.979c0,.25-.1.582-.1.915a3.092,3.092,0,0,1-.194.915,3.267,3.267,0,0,1-.485.749,1.616,1.616,0,0,1-.969.333,1.412,1.412,0,0,1-.581-.083,2.082,2.082,0,0,1-.581-.333c-.194-.166-.388-.25-.581-.416a.686.686,0,0,1-.291-.5l-5.621-7.652-.872-1.58v3.244c0,1.5,0,3.077.1,4.491.1,1.5.1,2.994.1,4.491v3.327a2.482,2.482,0,0,1-.485.832,1.221,1.221,0,0,1-.969.333,2.491,2.491,0,0,1-1.26-.25A1.762,1.762,0,0,1,69.488,29.265Z" transform="translate(-2.138 -0.321)"/><path class="a" d="M122.706,14.468c0-.166-.1-.5-.1-.749,0-.333-.1-.582-.1-.915a4.337,4.337,0,0,0-.194-1h-.388l-5.039,1.248a1.027,1.027,0,0,1-.678.333h-.775a2.028,2.028,0,0,1-1.26-.5c-.388-.333-.678-.665-.678-1a1.445,1.445,0,0,1,.291-.832,2.535,2.535,0,0,1,.775-.582l7.171-1.913a3.7,3.7,0,0,1,.485-.832,1.436,1.436,0,0,1,.969-.416,2.2,2.2,0,0,1,1.066.25,3.25,3.25,0,0,0,.969.416,6.465,6.465,0,0,0,1.357-.25c.581-.166,1.26-.25,1.938-.416s1.357-.25,1.938-.416a5.912,5.912,0,0,1,1.26-.25,5,5,0,0,0,.775-.166,2.485,2.485,0,0,1,.872-.083,4,4,0,0,1,1.551.416,1.3,1.3,0,0,1,.775,1.164,1,1,0,0,1-.388.832,2.1,2.1,0,0,1-.969.5L126,11.141v.333a18.87,18.87,0,0,0,.194,2.329,8.807,8.807,0,0,1,.194,2.246l1.454,11.644v1.747a2.163,2.163,0,0,1-.194.832,1.087,1.087,0,0,1-.485.582,1.746,1.746,0,0,1-1.066.25,2.523,2.523,0,0,1-1.163-.416,1.574,1.574,0,0,1-.678-.915L122.609,14.8v-.333Z" transform="translate(-3.512 -0.994)"/><path class="a" d="M139.248,20.277h-.1c0,1,0,2.079.1,3.077,0,1,.1,2,.1,3.077v.915a2.593,2.593,0,0,1-.194.832.981.981,0,0,1-.484.582,1.615,1.615,0,0,1-.969.25,1.827,1.827,0,0,1-1.744-1.081c-.194-1.164-.194-2.329-.291-3.493a21.236,21.236,0,0,0-.291-3.493,2.377,2.377,0,0,0-.485-1,1.416,1.416,0,0,1-.388-.915.71.71,0,0,1,.291-.582.762.762,0,0,0,.291-.665c0-2-.1-3.909-.194-5.822s-.194-3.826-.194-5.822V5.306c.194-.25.388-.416.581-.416a2.485,2.485,0,0,1,.872-.083,1.817,1.817,0,0,1,1.647.665,3.905,3.905,0,0,1,.388,1.58l.388,10.064c0,.083.1.166.194.333s.194.25.291.25c.194,0,.581-.083,1.163-.166a12.883,12.883,0,0,0,1.744-.333,9.231,9.231,0,0,0,1.647-.416c.485-.166.775-.25.872-.416v-4.99c0-1-.1-2.079-.194-3.161a8.189,8.189,0,0,0-.1-1.248c-.1-.665-.194-1.414-.291-2.162a17.623,17.623,0,0,1-.194-2.162,8.194,8.194,0,0,1-.1-1.248V.9A.77.77,0,0,1,144,.15a1.743,1.743,0,0,1,.872-.25,1.823,1.823,0,0,1,1.55.582A3.366,3.366,0,0,1,147.1,1.9c0,.25.1.749.1,1.414.1.665.1,1.331.194,2.079a17.629,17.629,0,0,1,.194,2.162,11.467,11.467,0,0,0,.194,1.414v.582a2.78,2.78,0,0,0,.1.749c0,.333.1.582.1.749v15.47a5.792,5.792,0,0,1,.291,1.081c0,.25.1.582.1,1a2.223,2.223,0,0,1-.291,1,1,1,0,0,1-.969.5,2.928,2.928,0,0,1-1.163-.25,3.233,3.233,0,0,1-.872-.665,1.92,1.92,0,0,1-.581-.915,1.846,1.846,0,0,1-.194-1V19.529Z" transform="translate(-4.162 0.1)"/><path class="a" d="M153.623,29.765c-.291-1-.485-2-.678-2.828a13.418,13.418,0,0,1-.291-2.828v-1.5a3.778,3.778,0,0,0-.194-1.414c0-.083-.1-.166-.194-.25s-.194-.083-.291-.166l-.291-.25c-.1-.083-.1-.333-.1-.582a.813.813,0,0,1,.194-.5,1.791,1.791,0,0,1,.291-.416c.1-.166.194-.25.291-.416a1.08,1.08,0,0,0,.194-.582v-.582a7.078,7.078,0,0,0-.1-1.248c-.1-.582-.1-1.248-.194-1.913s-.1-1.331-.194-1.913c0-.582-.1-1-.1-1.248a2.428,2.428,0,0,0-.388-1.164,2.161,2.161,0,0,1-.388-1.164,2.013,2.013,0,0,1,.581-1.663,3.167,3.167,0,0,1,2.035-.5.551.551,0,0,1,.484.25.551.551,0,0,0,.485.25h.194c.1,0,.194-.083.388-.083s.291-.083.388-.083c2.423-.915,4.361-1.58,5.717-2.079s2.423-.832,3.1-1.081a13.692,13.692,0,0,1,1.454-.416,1.654,1.654,0,0,1,.678.083,1.618,1.618,0,0,1,.678.25,1.081,1.081,0,0,1,.194.582,1.993,1.993,0,0,1-.1.749,1.183,1.183,0,0,1-.581.582l-5.717,2.412h-.388L155.948,9.8a.385.385,0,0,0-.291.416v.5a5.571,5.571,0,0,0,.1,1.081c.1.5.1,1.081.194,1.663s.1,1.081.194,1.5.1.665.194.665h0c.291-.166.872-.582,1.55-1,.678-.5,1.454-1,2.132-1.5.775-.5,1.357-.915,1.938-1.331s.872-.582.872-.582a1.415,1.415,0,0,1,.872.416,1.1,1.1,0,0,1,.388.832,3.64,3.64,0,0,1-.194,1,1.679,1.679,0,0,1-.678.832l-6.88,5.24v1.5a23.123,23.123,0,0,0,.194,2.662,12.7,12.7,0,0,1,.194,2.662h.194a1.111,1.111,0,0,0,.388-.333,2.32,2.32,0,0,0,.485-.5,4.968,4.968,0,0,0,.388-.5,16.265,16.265,0,0,1,1.163-1.248c.485-.582,1.26-1.331,2.132-2.329.872-.915,2.035-2.162,3.392-3.66l.485-.416.388-.333c.1-.083.291-.083.581-.083a3.946,3.946,0,0,1,.581.083,2.1,2.1,0,0,1,.581.416c.194.25.388.416.388.665a2.055,2.055,0,0,1-.581,1.164,17.2,17.2,0,0,1-1.26,1.5l-1.454,1.5c-.484.5-.872.915-1.163,1.164q-.581.873-1.454,2a15.616,15.616,0,0,1-1.841,2.246,10.942,10.942,0,0,1-2.229,1.83,4.73,4.73,0,0,1-2.616.749,2.377,2.377,0,0,1-.969-.166C154.107,30.264,153.913,30.1,153.623,29.765Z" transform="translate(-4.679 -0.489)"/></g><g transform="translate(356.222 41.669)"><path class="a" d="M11.529,99.155h-.291c0,2.5.1,4.907.194,7.319s.194,4.824.194,7.4a16.152,16.152,0,0,1-.1,2.162,6.188,6.188,0,0,1-.388,1.913,2.6,2.6,0,0,1-1.066,1.331,4.582,4.582,0,0,1-2.423.5,4.278,4.278,0,0,1-4.167-2.662,83.681,83.681,0,0,1-.678-8.4c-.1-2.745-.291-5.573-.678-8.484a4.548,4.548,0,0,0-1.26-2.412A3.456,3.456,0,0,1-.1,95.578a1.467,1.467,0,0,1,.678-1.331,1.814,1.814,0,0,0,.678-1.58c0-4.741-.194-9.4-.485-14.056S.288,69.3.288,64.638v-1.58a2.768,2.768,0,0,1,1.454-1.081,11.926,11.926,0,0,1,2.035-.166c2.035,0,3.392.5,3.876,1.58a9.162,9.162,0,0,1,.969,3.826l.969,24.12c.1.166.194.5.388.832a.863.863,0,0,0,.775.582,15.5,15.5,0,0,0,2.713-.333c1.357-.25,2.713-.416,4.264-.749a37.808,37.808,0,0,0,3.973-.915,5.414,5.414,0,0,0,2.132-.915c0-.416,0-1.164.1-2.246,0-1.081.1-1.83.1-2.246,0-2.578,0-5.073-.1-7.569s-.194-4.99-.388-7.569c0-.416-.1-1.414-.291-3.077-.194-1.58-.388-3.327-.678-5.24-.194-1.913-.388-3.576-.581-5.24-.194-1.58-.291-2.578-.291-3.077-.1-.083-.1-.25-.1-.582v-.665a1.9,1.9,0,0,1,.969-1.747A4.764,4.764,0,0,1,24.708,50a4.958,4.958,0,0,1,3.779,1.331,8.857,8.857,0,0,1,1.744,3.327c.1.665.194,1.747.291,3.327s.291,3.244.485,5.073.388,3.493.581,5.157c.194,1.58.291,2.745.388,3.327v1.414c0,.333.1.915.194,1.747a8.85,8.85,0,0,0,.291,1.747V113.71a11.946,11.946,0,0,1,.678,2.578,15.453,15.453,0,0,1,.194,2.329,4.5,4.5,0,0,1-.678,2.329,2.547,2.547,0,0,1-2.423,1.248,6.174,6.174,0,0,1-2.713-.665,7.774,7.774,0,0,1-2.132-1.663,9.471,9.471,0,0,1-1.454-2.246,5.728,5.728,0,0,1-.485-2.5V96.41Z" transform="translate(0.1 -50)"/><path class="a" d="M40.1,108.8a13.115,13.115,0,0,0,0-2.911c-.1-1.58-.1-3.493-.1-5.822s.1-4.907.194-7.652.388-5.573.775-8.484a74.034,74.034,0,0,1,1.647-8.234,28.223,28.223,0,0,1,2.907-6.82,4.716,4.716,0,0,1,3.1-3.41A22.321,22.321,0,0,1,55.5,64.3a8.934,8.934,0,0,1,4.845,1.248,11.407,11.407,0,0,1,3.392,3.161,25.894,25.894,0,0,1,2.52,4.075c.678,1.414,1.357,2.745,1.938,3.909v.416a19.492,19.492,0,0,1,1.066,5.406c.291,2.412.388,4.907.485,7.569s.194,5.157.194,7.569v5.573a29.176,29.176,0,0,1-.872,6.487,27.127,27.127,0,0,1-2.713,7.153,18.6,18.6,0,0,1-4.845,5.739,10.926,10.926,0,0,1-7.074,2.329,11.909,11.909,0,0,1-6.2-1.58,14.789,14.789,0,0,1-4.555-3.909,17.723,17.723,0,0,1-2.81-5.24A21.868,21.868,0,0,1,40.1,108.8Zm10.175,6.072a4.368,4.368,0,0,0,1.26,2.079,3.367,3.367,0,0,0,2.423,1.081h.872a15.4,15.4,0,0,0,5.814-7.984A33.749,33.749,0,0,0,62,100.563c0-.749,0-2-.1-3.66s-.194-3.493-.388-5.489-.388-4.159-.678-6.4-.678-4.325-1.066-6.321a29.677,29.677,0,0,0-1.454-5.157,6.98,6.98,0,0,0-2.035-2.994,1.187,1.187,0,0,0-.291.333L55.8,71.2a23.194,23.194,0,0,0-3.973,6.4,41.5,41.5,0,0,0-2.713,9.648,71.9,71.9,0,0,0-.775,12.559A78.218,78.218,0,0,0,50.272,114.868Z" transform="translate(-1.141 -52.406)"/><path class="a" d="M76.1,108.8a13.114,13.114,0,0,0,0-2.911c-.1-1.58-.1-3.493-.1-5.822s.1-4.907.194-7.652.388-5.573.775-8.484a74.047,74.047,0,0,1,1.647-8.234,28.224,28.224,0,0,1,2.907-6.82,4.716,4.716,0,0,1,3.1-3.41A22.321,22.321,0,0,1,91.5,64.3a8.934,8.934,0,0,1,4.845,1.248,11.407,11.407,0,0,1,3.392,3.161,25.894,25.894,0,0,1,2.52,4.075c.678,1.414,1.357,2.745,1.938,3.909v.416a19.494,19.494,0,0,1,1.066,5.406c.291,2.412.388,4.907.485,7.569s.194,5.157.194,7.569v5.573a29.175,29.175,0,0,1-.872,6.487,27.126,27.126,0,0,1-2.713,7.153,18.6,18.6,0,0,1-4.845,5.739,10.926,10.926,0,0,1-7.074,2.329,11.909,11.909,0,0,1-6.2-1.58,14.789,14.789,0,0,1-4.555-3.909,17.723,17.723,0,0,1-2.81-5.24A21.867,21.867,0,0,1,76.1,108.8Zm10.272,6.072a4.368,4.368,0,0,0,1.26,2.079,3.367,3.367,0,0,0,2.423,1.081h.872a15.4,15.4,0,0,0,5.814-7.984,33.75,33.75,0,0,0,1.357-9.482c0-.749,0-2-.1-3.66s-.194-3.493-.388-5.489-.388-4.159-.678-6.4-.678-4.325-1.066-6.321a29.673,29.673,0,0,0-1.454-5.157,6.98,6.98,0,0,0-2.035-2.994,1.186,1.186,0,0,0-.291.333l-.194.333a23.194,23.194,0,0,0-3.973,6.4,41.5,41.5,0,0,0-2.713,9.648,73.289,73.289,0,0,0,1.163,27.613Z" transform="translate(-2.255 -52.406)"/><path class="a" d="M124.685,122.207a1.705,1.705,0,0,1,.678-1.414,1.785,1.785,0,0,0,.678-1.331c0-.083-.1-.249-.388-.416a3.441,3.441,0,0,1-.485-.333,5.825,5.825,0,0,1-1.163-3.077c-.1-1.164-.1-2.246-.1-3.244,0-5.572,0-11.062.1-16.551.1-5.406.1-10.979.1-16.551a5.926,5.926,0,0,0-2.035.416c-.678.25-1.26.582-2.035.915a17.024,17.024,0,0,1-2.229.915,8.345,8.345,0,0,1-2.52.416h-1.647a2.117,2.117,0,0,0-1.066-.5c-.581-.166-.872-.333-.872-.582V78.126a1.791,1.791,0,0,0,.872-.749,3.055,3.055,0,0,0,.581-.832l10.66-4.574.388-.416a12.731,12.731,0,0,1,.291-4.075c.388-1,1.55-1.58,3.682-1.58a7.59,7.59,0,0,1,1.841.25,9.3,9.3,0,0,1,1.938.749,3.428,3.428,0,0,1,1.357,1.164,2.389,2.389,0,0,1,.291,1.663c3.489.083,6.977.333,10.466.665a33.711,33.711,0,0,1,9.3,2.162,16.137,16.137,0,0,1,6.687,4.907q2.616,3.244,2.616,8.983a24.9,24.9,0,0,1-2.326,10.313,25.58,25.58,0,0,1-6.686,8.9L133.6,122.79a19.281,19.281,0,0,1-2.52,1.83,6.631,6.631,0,0,1-2.907.582,4.3,4.3,0,0,1-2.616-.749A3.042,3.042,0,0,1,124.685,122.207Zm9.012-8.151h-.388l.872-.416a8.239,8.239,0,0,1,.775-.582c.485-.333.969-.749,1.55-1.164s1.163-.915,1.647-1.331a8.531,8.531,0,0,0,1.357-1.081c1.647-1.414,3.295-2.994,5.136-4.658a53.175,53.175,0,0,0,4.942-5.24,29.237,29.237,0,0,0,3.682-5.822,14.559,14.559,0,0,0,1.454-6.4,10.648,10.648,0,0,0-1.357-5.406,10.949,10.949,0,0,0-3.682-3.66,19.437,19.437,0,0,0-5.33-2.079,33.065,33.065,0,0,0-6.59-.665c-.194,0-.872.083-1.841.166a3.812,3.812,0,0,0-2.132.582v37.76Z" transform="translate(-3.36 -52.676)"/></g><g transform="translate(354.045 131.411)"><path class="a" d="M10.66,169.131c0-.25-.1-.5-.1-.915-.1-.333-.1-.749-.194-1.081s-.1-.749-.194-1.248H9.787l-5.814,1.5a1.013,1.013,0,0,1-.872.333H2.229a2.179,2.179,0,0,1-1.454-.582A1.529,1.529,0,0,1,0,165.887a1.152,1.152,0,0,1,.388-.915,2.436,2.436,0,0,1,.969-.665l8.237-2.246a2.677,2.677,0,0,1,.581-1,1.467,1.467,0,0,1,1.163-.5,1.71,1.71,0,0,1,1.163.333,11.219,11.219,0,0,0,1.066.5,8.891,8.891,0,0,0,1.55-.25q1.018-.25,2.326-.5l2.326-.5c.678-.166,1.26-.25,1.454-.333.388-.083.678-.166.969-.25a2.377,2.377,0,0,1,.969-.166,5.372,5.372,0,0,1,1.841.416,1.575,1.575,0,0,1,.969,1.331,1.29,1.29,0,0,1-.485,1,2.431,2.431,0,0,1-1.163.582l-9.787,2.329v.416a11.881,11.881,0,0,0,.291,2.661,8.241,8.241,0,0,1,.194,2.661l1.744,13.64v2.079a3.639,3.639,0,0,1-.194,1,1.5,1.5,0,0,1-.581.749,2.491,2.491,0,0,1-1.26.25,3.209,3.209,0,0,1-1.357-.416,1.679,1.679,0,0,1-.775-1.081L10.66,169.464v-.333Z" transform="translate(0 -158.152)"/><path class="a" d="M24.5,180.625v-4.242c0-1.164.1-2.412.1-3.743.1-1.331.194-2.745.388-4.075.194-1.414.485-2.745.775-3.992a11.054,11.054,0,0,1,1.454-3.327,2.267,2.267,0,0,1,1.454-1.663A10.674,10.674,0,0,1,31.962,159a3.917,3.917,0,0,1,2.326.582,6.563,6.563,0,0,1,1.647,1.5,7.127,7.127,0,0,1,1.163,2c.388.665.678,1.331.969,1.913v.249a19.442,19.442,0,0,1,.581,2.661c.1,1.164.194,2.412.291,3.66s.1,2.5.1,3.66v2.661a13.571,13.571,0,0,1-.388,3.161,11.184,11.184,0,0,1-1.357,3.493,8.542,8.542,0,0,1-2.326,2.745,5.567,5.567,0,0,1-3.489,1.164,5.857,5.857,0,0,1-3-.749,7.663,7.663,0,0,1-2.229-1.913,7.865,7.865,0,0,1-1.744-5.157Zm4.942,2.911a2.677,2.677,0,0,0,.581,1,1.467,1.467,0,0,0,1.163.5h.388a7.289,7.289,0,0,0,2.81-3.826,14.6,14.6,0,0,0,.678-4.575,12.766,12.766,0,0,0-.1-1.747c0-.832-.1-1.663-.194-2.661s-.194-2-.291-3.077A29.783,29.783,0,0,0,34,166.07c-.194-.915-.485-1.747-.678-2.5a4.057,4.057,0,0,0-.969-1.5.281.281,0,0,0-.1.166.242.242,0,0,0-.1.166,11.818,11.818,0,0,0-1.938,3.161,19.454,19.454,0,0,0-1.357,4.741,38.934,38.934,0,0,0-.388,6.072A40.908,40.908,0,0,0,29.442,183.536Z" transform="translate(-0.758 -158.085)"/><path class="a" d="M74.138,188.726a7.7,7.7,0,0,0,.1-.832,7.181,7.181,0,0,1,.194-1.331,6.4,6.4,0,0,0,.194-1.248,4.108,4.108,0,0,1,.194-.832c.194-1.331.388-2.661.678-3.909a18.342,18.342,0,0,0,.388-3.909V176l-.775-.333c-.1-.083-.485-.25-1.066-.582S72.878,174.42,72.2,174s-1.357-.832-1.938-1.248a12.221,12.221,0,0,1-1.454-1,4.638,4.638,0,0,1-.969-.665,16.4,16.4,0,0,1-1.454-1.081c-.485-.416-.969-.749-1.454-1.164-.484-.333-.775-.665-.969-.749a7.6,7.6,0,0,1-.775-.832,2.252,2.252,0,0,1-.388-.915,1.1,1.1,0,0,1,.678-1.081,3.09,3.09,0,0,1,1.454-.333,4.612,4.612,0,0,1,1.066.083,2.1,2.1,0,0,1,.969.5,43.589,43.589,0,0,0,4.361,3.743,32.781,32.781,0,0,0,4.942,3.161l.194-.582L78.6,159.949a.773.773,0,0,1,.678-.582,4.89,4.89,0,0,1,.969-.166,3.021,3.021,0,0,1,2.035.582,2.116,2.116,0,0,1,.678,1.83v.083a.578.578,0,0,1-.1.25c-.1.083-.1.25-.194.416a.661.661,0,0,0-.1.416.338.338,0,0,1-.1.25c-.1.333-.194,1-.388,2.079-.194,1-.388,2.246-.581,3.66s-.388,2.911-.678,4.574c-.194,1.663-.485,3.327-.678,5.073-.194,1.663-.485,3.327-.678,4.907s-.485,2.994-.678,4.159c0,.333.1.665.1,1a1.994,1.994,0,0,1-.194,1.081,2.143,2.143,0,0,1-.678.915,1.71,1.71,0,0,1-1.163.333,3.769,3.769,0,0,1-1.744-.416C74.719,189.641,74.332,189.225,74.138,188.726Z" transform="translate(-1.943 -158.119)"/><path class="a" d="M86.2,180.625v-4.242c0-1.164.1-2.412.1-3.743.1-1.331.194-2.745.388-4.075.194-1.414.485-2.745.775-3.992a11.054,11.054,0,0,1,1.454-3.327,2.267,2.267,0,0,1,1.454-1.663A10.674,10.674,0,0,1,93.662,159a3.917,3.917,0,0,1,2.326.582,6.564,6.564,0,0,1,1.647,1.5,7.127,7.127,0,0,1,1.163,2c.388.665.678,1.331.969,1.913v.249a19.441,19.441,0,0,1,.581,2.661c.1,1.164.194,2.412.291,3.66s.1,2.5.1,3.66v2.661a13.571,13.571,0,0,1-.388,3.161,11.184,11.184,0,0,1-1.357,3.493,8.543,8.543,0,0,1-2.326,2.745,5.567,5.567,0,0,1-3.489,1.164,5.857,5.857,0,0,1-3-.749,7.662,7.662,0,0,1-2.229-1.913,9.162,9.162,0,0,1-1.357-2.5A14.359,14.359,0,0,1,86.2,180.625Zm4.942,2.911a2.677,2.677,0,0,0,.581,1,1.468,1.468,0,0,0,1.163.5h.388a7.289,7.289,0,0,0,2.81-3.826,14.6,14.6,0,0,0,.678-4.575,12.763,12.763,0,0,0-.1-1.747c0-.832-.1-1.663-.194-2.661s-.194-2-.291-3.077a29.773,29.773,0,0,0-.485-3.077c-.194-.915-.485-1.747-.678-2.5a4.057,4.057,0,0,0-.969-1.5.281.281,0,0,0-.1.166.281.281,0,0,1-.1.166,11.818,11.818,0,0,0-1.938,3.161,19.455,19.455,0,0,0-1.357,4.741,38.934,38.934,0,0,0-.388,6.072A40.906,40.906,0,0,0,91.142,183.536Z" transform="translate(-2.668 -158.085)"/><path class="a" d="M117.876,183.383c-.388.582-.872,1.331-1.357,2.079a13.377,13.377,0,0,1-1.841,2.162,14.046,14.046,0,0,1-2.229,1.747,4.67,4.67,0,0,1-2.616.665,4.251,4.251,0,0,1-2.81-.915,6.255,6.255,0,0,1-1.55-2.163,8.326,8.326,0,0,1-.678-2.745c-.1-.915-.194-1.83-.194-2.578v-1.164c0-.25.1-.582.1-1.081.1-.5.1-1,.194-1.58a11.772,11.772,0,0,0,.194-1.913,14,14,0,0,0,.194-1.913,11.063,11.063,0,0,0,.194-1.58c0-.416.1-.832.1-1.081a1.5,1.5,0,0,1-.1-.915,2.3,2.3,0,0,1,.388-.832,2.534,2.534,0,0,1,.775-.582,2.2,2.2,0,0,1,1.066-.25,1.965,1.965,0,0,1,.581.083c.291.083.485.166.775.25a1.757,1.757,0,0,1,.678.416c.194.166.291.25.291.416v1.663c-.485,3.16-.775,5.739-.969,7.569-.1,1.913-.194,3.327-.194,4.408a5.442,5.442,0,0,0,.291,2.162,7.067,7.067,0,0,0,.485.832,1.867,1.867,0,0,0,1.163.083,3.485,3.485,0,0,0,1.454-.832,14.682,14.682,0,0,0,1.938-2.162c.775-1,1.744-2.329,2.81-3.909a.647.647,0,0,0,.194-.5,2.954,2.954,0,0,0,.194-.5c-.1-1.913-.1-3.909,0-5.905s.1-3.909.194-5.905c.1-.333.388-.5.678-.665a2.1,2.1,0,0,1,.969-.25,2.252,2.252,0,0,1,.581.166,2.185,2.185,0,0,1,.775.416,4.106,4.106,0,0,1,.678.5.686.686,0,0,1,.291.5v12.975l.581,3.992a28.325,28.325,0,0,0,.581,3.992,4.258,4.258,0,0,0,.1.915q.145.624.291,1.5l.291,1.5c.1.416.194.749.194.832v.5q0,1.622-2.035,1.747a1.509,1.509,0,0,1-1.454-.665,6.467,6.467,0,0,1-.969-1.913,16.685,16.685,0,0,1-.581-2.662c-.194-1-.291-1.913-.388-2.828s-.194-1.747-.291-2.5A1.749,1.749,0,0,0,117.876,183.383Z" transform="translate(-3.237 -159.263)"/><path class="a" d="M128.91,178.028c-.194-.416-.388-.665-.485-.915a2.161,2.161,0,0,1-.194-.832,1.993,1.993,0,0,1,.1-.749,1.993,1.993,0,0,0,.1-.749,11.066,11.066,0,0,0-.1-1.83c-.1-.582-.1-1.164-.194-1.83,0-.083-.194-.166-.388-.25a5.163,5.163,0,0,0-.678-.249,1.776,1.776,0,0,1-.678-.5,1.208,1.208,0,0,1-.291-.915,1.5,1.5,0,0,1,.291-.915,4.751,4.751,0,0,1,.581-.665c.194-.249.388-.416.581-.665a1.5,1.5,0,0,0,.291-.915,3.3,3.3,0,0,0-.1-.832c0-.416-.1-.832-.1-1.248a5.421,5.421,0,0,0-.1-1.248v-1c.1-.25.291-.5.291-.665a1.791,1.791,0,0,1,.291-.416.534.534,0,0,1,.388-.166,1.653,1.653,0,0,1,.678-.083,2.58,2.58,0,0,1,1.551.333,1.425,1.425,0,0,1,.678.832c.1.333.194.582.291.832,0,.25.1.416.291.416l3.682-2.745h.194a18.392,18.392,0,0,1,3.779-1.58,17.27,17.27,0,0,1,4.167-.582,14.34,14.34,0,0,1,1.647.166,6.555,6.555,0,0,1,1.841.5,5.564,5.564,0,0,1,1.454.832,1.746,1.746,0,0,1,.581,1.331,6.434,6.434,0,0,1-.291,1.83,13.981,13.981,0,0,1-.678,1.83,16.868,16.868,0,0,1-1.066,1.747,6.562,6.562,0,0,1-1.26,1.414,15.556,15.556,0,0,1-3.295,2.5c-2.035,1.331-5.039,3.327-9.012,5.905l24.711,1.331c.388,0,.775.083,1.454.083a12.376,12.376,0,0,1,1.744.166,3.6,3.6,0,0,1,1.454.5,1.317,1.317,0,0,1,.581,1.164,1.409,1.409,0,0,1-.1.665,1.79,1.79,0,0,1-.291.416c-.1.083-.291.166-.388.25a1.686,1.686,0,0,0-.485.333h-1.454c-.678-.083-1.357-.166-2.132-.25s-1.551-.166-2.616-.333c-.969-.083-2.132-.249-3.392-.333s-2.907-.25-4.651-.333q-2.762-.125-6.4-.249c-2.423-.083-5.233-.083-8.431-.083a1.463,1.463,0,0,0-.194.416,19.288,19.288,0,0,0,.291,3.327,18.14,18.14,0,0,1,.291,3.16,1.791,1.791,0,0,1-.1.665,5.244,5.244,0,0,1-.291.665,2.573,2.573,0,0,1-.484.582,1.21,1.21,0,0,1-.775.25,1.9,1.9,0,0,1-.678-.083,2.085,2.085,0,0,1-.775-.333,4.1,4.1,0,0,1-.678-.5,2.03,2.03,0,0,1-.388-.582Zm3.392-9.814a14.353,14.353,0,0,0,.1,2.079,16.375,16.375,0,0,0,.194,2.079h.194a.844.844,0,0,0,.291-.083c.1-.083.485-.25,1.066-.582s1.357-.832,2.52-1.5,2.713-1.58,4.748-2.828a4.985,4.985,0,0,0,1.357-1.081,12.054,12.054,0,0,0,1.357-1.663,16.861,16.861,0,0,0,1.066-1.747,3.3,3.3,0,0,0,.388-1.414c0-.333-.194-.416-.485-.416h-.872a7.506,7.506,0,0,0-1.744.249,8.7,8.7,0,0,0-2.326.915,33.745,33.745,0,0,0-3.2,1.913,43.711,43.711,0,0,0-4.361,3.327v.749Z" transform="translate(-3.902 -157.9)"/></g><g transform="translate(353.948 177.322)"><path class="a" d="M8.718,246.286v-2.412c-.1-.832-.194-1.663-.291-2.412,0-.166-.1-.5-.194-1a3.681,3.681,0,0,1-.1-.832.371.371,0,0,0-.1-.25.578.578,0,0,1-.1-.25l.1-.083c.1-.083.194-.166.1-.166V227.156H7.846c-.581.582-1.26,1.164-2.035,1.83a3.986,3.986,0,0,1-4.845.333A2,2,0,0,1-.1,227.572v-.083a.242.242,0,0,1,.1-.166c0-.083.1-.166.1-.249s.1-.25.1-.333l7.946-5.988v-3.327c0-.416.291-.749.872-.915a6.175,6.175,0,0,1,1.454-.333,4.458,4.458,0,0,1,1.744.416,3.607,3.607,0,0,0,1.55.416,2.177,2.177,0,0,0,1.26-.333,8.3,8.3,0,0,1,1.163-.665,30.8,30.8,0,0,1,5.233-2.163,19.7,19.7,0,0,1,5.621-.749,25.079,25.079,0,0,1,3.2.25,24.524,24.524,0,0,1,3.586.749,8.976,8.976,0,0,1,2.907,1.5,3.153,3.153,0,0,1,1.163,2.5,11.082,11.082,0,0,1-1.26,5.24,13.792,13.792,0,0,1-3.586,4.408c-2.035,1.663-3.876,3.077-5.524,4.325-1.744,1.248-3.682,2.578-5.814,3.909a.281.281,0,0,0-.1.166c0,.083-.1.083-.1.166l-6.88,4.075a1.1,1.1,0,0,0-.388.915v.832a21.242,21.242,0,0,0,.291,3.493c.194,1.164.388,2.329.485,3.493.194,1.164.388,2.329.485,3.493a21.242,21.242,0,0,1,.291,3.493,3.431,3.431,0,0,1-.485,1.747,2.145,2.145,0,0,1-1.841.749,4.562,4.562,0,0,1-2.132-.665,2.41,2.41,0,0,1-1.26-1.58Zm5.717-11.727,12.888-8.484a8.683,8.683,0,0,0,1.744-1.414,16.662,16.662,0,0,0,1.647-1.913,15.66,15.66,0,0,0,1.26-2.079,5.784,5.784,0,0,0,.485-2.079.936.936,0,0,0-.581-.915,3.707,3.707,0,0,0-1.357-.5,9.807,9.807,0,0,0-1.55-.166H27.615a13.336,13.336,0,0,0-5.814,1.248c-1.744.832-3.489,1.747-5.039,2.661a5.862,5.862,0,0,1-.581.333l-.872.5c-.291.166-.485.333-.775.5a.741.741,0,0,0-.291.416v11.561Z" transform="translate(0.1 -213.1)"/><path class="a" d="M39.594,249.872c0-3.161.1-6.238.194-9.315s.194-6.238.194-9.4a52.082,52.082,0,0,0-.291-5.489,52.078,52.078,0,0,1-.291-5.489,2.119,2.119,0,0,1,.581-1.5,2.084,2.084,0,0,1,1.55-.582,4,4,0,0,1,2.52.582,3.006,3.006,0,0,1,1.163,1.5,6.775,6.775,0,0,1,.388,2.079v3.493c0,.665.1,1.331.1,2.079s.1,1.414.1,2.079v3.244c0,2.661,0,5.24-.1,7.818s-.1,5.24-.1,7.9v2.578a2.975,2.975,0,0,0,.1.832c.1.333.1.5.194.5h.581l16.765-5.656a1.943,1.943,0,0,1,.969-.416h1.938a4,4,0,0,1,1.066.166,4.86,4.86,0,0,1,.969.416.825.825,0,0,1,.388.832,2.883,2.883,0,0,1-1.744,2.412c-1.55.665-3.1,1.331-4.651,1.913a33.1,33.1,0,0,1-4.942,1.414l-.388.25a28.952,28.952,0,0,0-6.4,2.329c-1.938,1-3.973,1.913-6.105,2.828h-.678a3.361,3.361,0,0,1-2.81-1.081,5,5,0,0,1-1.163-2.578,10.782,10.782,0,0,1-.194-3.077C39.5,251.452,39.594,250.537,39.594,249.872Z" transform="translate(-1.122 -213.941)"/><path class="a" d="M71.8,254.681a45.536,45.536,0,0,1,.581-7.236c.388-2.412.678-4.824.969-7.153a3.681,3.681,0,0,1,.1-.832,6.3,6.3,0,0,1,.194-1.331c.1-.416.1-.915.194-1.331a3.3,3.3,0,0,0,.1-.832v-.25l3-19.046a3.309,3.309,0,0,1,.485-2.162,2.354,2.354,0,0,1,2.229-.915,5.308,5.308,0,0,1,2.907.416,6.51,6.51,0,0,1,1.938,1.5,7.4,7.4,0,0,1,1.26,2,10.438,10.438,0,0,0,1.066,2,14.178,14.178,0,0,0,.872,2c.388.749.775,1.747,1.26,2.911s1.066,2.578,1.744,4.325l2.423,6.238.291.25c.291-.166.969-.416,1.841-.832s1.938-.749,2.907-1.164,1.938-.832,2.907-1.164c.872-.333,1.551-.582,1.938-.749,0-.083.194-.166.388-.25s.388-.083.485-.166h.1a1.338,1.338,0,0,1,1.066.416,1.871,1.871,0,0,1,.388.915,1.718,1.718,0,0,1-.388,1.164,6.486,6.486,0,0,1-.775.915c-.291.25-.678.5-.969.749a3.4,3.4,0,0,0-.775.832l-7.074,3.077a.686.686,0,0,0-.291.5,3.46,3.46,0,0,0,.581,1.5c.388.665.678,1.248.969,1.663.1.25.388.665.678,1.331a19.968,19.968,0,0,0,1.066,2,19.985,19.985,0,0,1,1.066,2c.388.665.581,1.081.775,1.331v.166c0,1.5-.872,2.162-2.52,2.162a12.5,12.5,0,0,1-1.647-.166,1.688,1.688,0,0,1-1.26-.915l-4.748-8.733h-.678c-1.841,1.164-3.682,2.329-5.717,3.493a45.769,45.769,0,0,1-6.2,2.911,34.33,34.33,0,0,0-.581,4.408,34.73,34.73,0,0,0,0,4.491,6.209,6.209,0,0,1-1.163,1,2.774,2.774,0,0,1-1.55.333,2.217,2.217,0,0,1-1.454-.416,1.959,1.959,0,0,1-.678-1,5.567,5.567,0,0,1-.194-1.248A4.087,4.087,0,0,1,71.8,254.681Zm6.3-11.81a26.278,26.278,0,0,0,4.167-1.913c1.357-.832,2.616-1.58,3.876-2.246a2.213,2.213,0,0,1,.485-.25,2.08,2.08,0,0,0,.581-.333c.194-.083.388-.25.678-.416v-.5l-6.493-15.969L81.1,221a12.06,12.06,0,0,0-.485,2.079c-.194,1.164-.485,2.578-.678,4.408q-.436,2.745-.872,6.238c-.291,2.329-.581,4.907-.969,7.569Z" transform="translate(-2.125 -213.178)"/><path class="a" d="M108.894,250.527c.581-4.075.969-7.153,1.357-9.4.291-2.162.581-3.826.678-4.907.194-1.248.291-1.913.291-2.163.388-1.248.872-2.578,1.357-4.075a18.2,18.2,0,0,1,1.841-4.075,10.059,10.059,0,0,1,3-3.161,8.372,8.372,0,0,1,4.748-1.248,18.674,18.674,0,0,1,2.326.166,7.239,7.239,0,0,1,1.938.5,9.482,9.482,0,0,1,1.841.915,11.985,11.985,0,0,1,1.841,1.248c.485.333.775.582.775.665.1.083.1.333.1.749a2.107,2.107,0,0,1-.678,1.5,2.408,2.408,0,0,1-1.841.749,3.369,3.369,0,0,1-1.647-.416,6.523,6.523,0,0,1-1.26-.915,12.012,12.012,0,0,0-1.26-.915,3.769,3.769,0,0,0-1.744-.416,4.026,4.026,0,0,0-2.035.5,4.169,4.169,0,0,0-1.454,1.331,8.06,8.06,0,0,0-.969,1.747,16.486,16.486,0,0,0-.485,1.83l-3.295,19.462v2.329a5.42,5.42,0,0,0,.1,1.248,3.006,3.006,0,0,0,.485,1.081c.194.333.581.416,1.066.416a1.21,1.21,0,0,0,.775-.25,24.567,24.567,0,0,0,5.814-4.574,67.611,67.611,0,0,0,4.651-5.489c0-.083.194-.249.388-.582a6.068,6.068,0,0,1,.678-1l.581-1c.194-.333.291-.582.388-.749a8.9,8.9,0,0,0,.678-1.663,7.8,7.8,0,0,1,.485-1.58,2.069,2.069,0,0,1,.969-1.164,3.232,3.232,0,0,1,2.035-.416,3.166,3.166,0,0,1,1.938.749,2.362,2.362,0,0,1,.969,1.747v.083a34.377,34.377,0,0,1-4.555,8.068c-1.841,2.5-3.973,4.907-6.2,7.4a14.989,14.989,0,0,1-4.942,3.493,13.636,13.636,0,0,1-6.2,1.331h-.388a6.813,6.813,0,0,1-4.264-3.077,9.432,9.432,0,0,1-1.066-4.741v-1.331Z" transform="translate(-3.267 -214.514)"/><path class="a" d="M144.376,257.35a32.428,32.428,0,0,1-1.066-4.574c-.194-1.414-.388-2.994-.485-4.574V245.79a6.423,6.423,0,0,0-.291-2.246c0-.166-.194-.25-.291-.333a1.688,1.688,0,0,1-.485-.333c-.194-.083-.291-.25-.485-.416a1.955,1.955,0,0,1-.194-.915,1.269,1.269,0,0,1,.291-.832,4.6,4.6,0,0,1,.485-.665c.194-.25.291-.5.485-.749a1.5,1.5,0,0,0,.291-.915v-1a19.815,19.815,0,0,0-.1-2.079c-.1-1-.194-2-.291-3.077s-.194-2.162-.291-3.077-.1-1.663-.194-2a3.092,3.092,0,0,0-.678-1.83,3,3,0,0,1-.581-1.83,3.2,3.2,0,0,1,.969-2.745,5.309,5.309,0,0,1,3.295-.832.937.937,0,0,1,.775.333.937.937,0,0,0,.775.333h.291a4.474,4.474,0,0,0,.678-.166,1.966,1.966,0,0,1,.581-.083c3.973-1.5,7.074-2.578,9.3-3.41s3.876-1.414,5.039-1.747a13.308,13.308,0,0,1,2.326-.582,4.213,4.213,0,0,1,1.066.083,2.375,2.375,0,0,1,1.163.416,1.584,1.584,0,0,1,.291,1,5.566,5.566,0,0,1-.194,1.248,1.4,1.4,0,0,1-.969.915l-9.3,3.826-.291.249-7.849,2.828a.571.571,0,0,0-.485.582c0,.333-.1.582-.1.832a14.087,14.087,0,0,0,.1,1.747c.1.832.194,1.747.291,2.661s.194,1.747.291,2.412.194,1.081.291,1.081h.1l.1-.083c.485-.333,1.357-.915,2.52-1.663,1.163-.832,2.326-1.58,3.489-2.412s2.229-1.5,3.1-2.162a5.315,5.315,0,0,1,1.454-.915,2.31,2.31,0,0,1,1.454.665,2.2,2.2,0,0,1,.678,1.414,3.97,3.97,0,0,1-.388,1.663,2.524,2.524,0,0,1-1.163,1.414l-11.047,8.484v2.412a21.218,21.218,0,0,0,.388,4.325,32.592,32.592,0,0,1,.388,4.325h.291a4.913,4.913,0,0,0,.678-.5,6.494,6.494,0,0,0,.872-.832c.1-.083.291-.416.678-.832s.969-1.081,1.841-2,2.035-2.163,3.392-3.743c1.454-1.58,3.2-3.493,5.427-5.822a7.284,7.284,0,0,0,.775-.749c.388-.333.581-.5.678-.5a1.857,1.857,0,0,1,.872-.166,2.377,2.377,0,0,1,.969.166,4.636,4.636,0,0,1,.969.665,1.53,1.53,0,0,1,.581,1,3.45,3.45,0,0,1-.872,1.913,21.465,21.465,0,0,1-2.132,2.5c-.775.832-1.647,1.663-2.423,2.5s-1.454,1.414-1.841,1.913c-.678.915-1.454,2-2.423,3.244s-1.938,2.5-3,3.66a19.231,19.231,0,0,1-3.586,2.994,7.559,7.559,0,0,1-4.167,1.248,2.579,2.579,0,0,1-1.55-.333C145.248,258.265,144.861,257.849,144.376,257.35Z" transform="translate(-4.251 -213.352)"/></g></g></svg>