<?xml version="1.0" encoding="utf-8"?>
<!-- Generator: Adobe Illustrator 22.1.0, SVG Export Plug-In . SVG Version: 6.00 Build 0)  -->
<svg version="1.1" id="Layer_1" xmlns="http://www.w3.org/2000/svg" xmlns:xlink="http://www.w3.org/1999/xlink" x="0px" y="0px"
	 viewBox="0 0 595.3 841.9" style="enable-background:new 0 0 595.3 841.9;" xml:space="preserve">
<path d="M135.1,272.3c0-0.5,0.1-0.9,0.2-1.2c0.1-0.3,0.3-0.6,0.5-0.9c0.2-0.3,0.4-0.6,0.5-0.9c0.1-0.3,0.2-0.7,0.2-1.1
	c0-1.6-0.1-3.3-0.3-4.9c-0.2-1.6-0.5-3.3-0.7-4.9c-0.2-1.6-0.5-3.3-0.7-4.9c-0.2-1.6-0.3-3.3-0.3-4.9c0-1.2,0.2-1.9,0.6-2.4
	c0.4-0.4,1.2-0.7,2.4-0.7c0.9,0,1.7,0.2,2.3,0.7c0.6,0.5,1.2,1.1,1.9,1.8h0.4c0.4-0.2,1.1-0.6,2.1-1.2c1-0.6,2.2-1.2,3.3-1.9
	c1.2-0.7,2.3-1.3,3.4-1.9c1.1-0.6,1.8-1,2.3-1.3c0.9-0.5,1.8-0.9,2.7-1.2c0.9-0.3,1.8-0.5,2.9-0.5c0.5,0,1,0.1,1.2,0.2
	c0.3,0.2,0.4,0.6,0.4,1.3v0.2c-0.2,1.1-0.6,2-1.2,2.7c-0.5,0.7-1.2,1.3-1.9,1.8c-0.7,0.5-1.5,0.9-2.3,1.3c-0.8,0.4-1.6,0.8-2.3,1.2
	c-1.6,1.2-3,2.1-4.2,2.8c-1.1,0.7-2.1,1.3-2.9,1.7c-0.8,0.4-1.4,0.8-1.9,1.1c-0.5,0.3-0.8,0.6-1.1,0.9c0,0.2,0,0.5,0,0.9
	c0,0.5,0,0.8,0,0.9c0,1.6,0,3.3,0.1,4.9c0.1,1.6,0.4,3.2,1,4.8l19.2-9.1c0.4-0.2,0.7-0.3,0.9-0.3c0.2,0,0.5,0,0.9,0
	c0.2,0,0.6,0.1,1.1,0.2c0.5,0.2,0.7,0.4,0.7,0.7c0,1.3-0.4,2.4-1.3,3.4c-0.9,1-1.9,1.9-3.1,2.7c-1.2,0.8-2.5,1.5-3.8,2.1
	c-1.3,0.6-2.5,1.2-3.5,1.6c-0.2,0.1-0.5,0.2-0.7,0.2c-0.3,0.1-0.5,0.2-0.6,0.4l-8.6,4.5c-0.3,0.2-0.4,0.3-0.5,0.5c0,0.1,0,0.3,0,0.6
	c0,0.1,0,0.2,0,0.4c0,0.2,0,0.3,0,0.3l1.7,13.5c0.2,1.3-0.2,2.4-0.9,3.1c-0.8,0.8-1.8,1.2-2.9,1.2c-0.2,0-0.5,0-0.8-0.1
	c-0.3-0.1-0.7-0.2-1-0.3c-0.3-0.1-0.6-0.3-0.9-0.6c-0.2-0.2-0.4-0.5-0.5-0.9l-2.1-16.2c0-0.2-0.1-0.4-0.3-0.6
	c-0.2-0.2-0.5-0.3-0.7-0.5c-0.2-0.2-0.5-0.4-0.7-0.6C135.2,272.9,135.1,272.6,135.1,272.3z"/>
<path d="M173.7,273.7c-0.3-0.7-0.6-1.3-0.8-1.7c-0.2-0.4-0.3-1-0.3-1.6c0-0.5,0.1-0.9,0.2-1.4s0.2-0.9,0.2-1.4c0-1.2,0-2.3-0.1-3.4
	c-0.1-1-0.2-2.2-0.3-3.5c-0.1-0.2-0.2-0.3-0.6-0.4c-0.3-0.1-0.7-0.3-1.1-0.5c-0.4-0.2-0.7-0.5-1-0.9c-0.3-0.4-0.5-0.9-0.5-1.6
	c0-0.7,0.2-1.2,0.5-1.7c0.3-0.5,0.6-0.9,0.9-1.3c0.3-0.4,0.6-0.9,0.9-1.3c0.3-0.5,0.5-1,0.5-1.7c0-0.3,0-0.8-0.1-1.5
	c-0.1-0.7-0.1-1.5-0.1-2.3c0-0.8-0.1-1.6-0.1-2.3c0-0.7,0-1.2,0-1.5v-0.2v-0.2c0.2-0.5,0.4-0.9,0.5-1.2s0.3-0.6,0.5-0.7
	c0.2-0.2,0.4-0.3,0.7-0.4c0.3-0.1,0.6-0.1,1.1-0.1c1.2,0,2,0.2,2.6,0.7c0.5,0.4,0.9,0.9,1.2,1.5c0.2,0.6,0.4,1.1,0.4,1.6
	c0.1,0.5,0.2,0.8,0.4,0.8l5.9-5.2h0.3c1.9-1.3,4-2.2,6.1-2.9c2.1-0.7,4.4-1,6.8-1c0.7,0,1.6,0.1,2.6,0.2c1,0.2,2,0.5,2.9,0.9
	c0.9,0.4,1.7,0.9,2.3,1.6c0.6,0.7,0.9,1.5,0.9,2.5c0,1.1-0.1,2.2-0.4,3.4c-0.3,1.2-0.6,2.3-1.1,3.4c-0.5,1.1-1,2.2-1.6,3.2
	c-0.6,1-1.3,1.9-2,2.6c-0.3,0.6-2,2.1-5.3,4.6c-3.2,2.5-8.1,6.2-14.5,11l39.5,2.5c0.5,0.1,1.3,0.1,2.3,0.1c1,0,1.9,0.1,2.8,0.3
	c0.9,0.2,1.7,0.5,2.3,0.9c0.7,0.5,1,1.2,1,2.1c0,0.5-0.1,0.9-0.2,1.2c-0.1,0.3-0.3,0.5-0.5,0.7c-0.2,0.2-0.4,0.4-0.7,0.5
	c-0.2,0.2-0.5,0.4-0.7,0.7h-1.4h-1.4c-1.1-0.1-2.2-0.2-3.4-0.4c-1.2-0.2-2.6-0.4-4.1-0.6c-1.6-0.2-3.4-0.4-5.5-0.7
	c-2.1-0.2-4.6-0.4-7.5-0.6c-2.9-0.2-6.3-0.3-10.2-0.4c-3.9-0.1-8.4-0.2-13.5-0.2c-0.1,0-0.1,0.1-0.2,0.2c-0.1,0.2-0.1,0.3-0.1,0.4
	c0,2.1,0.2,4.1,0.5,6.1c0.4,2,0.5,4,0.5,6c0,0.4,0,0.8-0.1,1.3c-0.1,0.5-0.2,0.9-0.5,1.3c-0.2,0.4-0.5,0.8-0.8,1
	c-0.3,0.3-0.7,0.4-1.2,0.4c-0.3,0-0.7-0.1-1.2-0.2c-0.4-0.1-0.9-0.3-1.3-0.6c-0.4-0.3-0.8-0.6-1.1-0.9c-0.3-0.3-0.5-0.7-0.6-1.2
	L173.7,273.7z M179.2,255.4c0,1.4,0,2.7,0.1,3.9c0.1,1.2,0.1,2.5,0.2,4h0.2c0.1,0,0.2-0.1,0.4-0.2c0.2-0.1,0.8-0.5,1.6-1
	c0.9-0.6,2.2-1.5,4-2.7c1.8-1.2,4.4-3,7.7-5.2c0.7-0.4,1.4-1,2.1-2c0.8-0.9,1.5-1.9,2.1-3c0.7-1.1,1.2-2.2,1.6-3.3
	c0.4-1.1,0.7-2,0.7-2.7c0-0.5-0.3-0.8-0.8-0.8c-0.5,0-1,0-1.4,0c-0.8,0-1.8,0.1-2.8,0.4c-1,0.3-2.3,0.8-3.7,1.6s-3.2,2-5.2,3.5
	c-2,1.5-4.4,3.6-7,6.2V255.4z"/>
<path d="M232.5,278.2c0.1-0.3,0.1-1.2,0-2.6c-0.1-1.4-0.1-3.2,0-5.3c0-2.1,0.1-4.4,0.2-7c0.1-2.5,0.3-5.1,0.6-7.7
	c0.3-2.6,0.7-5.1,1.3-7.5c0.6-2.4,1.3-4.5,2.3-6.2c0.3-1.5,1.1-2.5,2.4-3.1c1.3-0.6,3-0.9,5.4-1c1.5,0,2.7,0.4,3.8,1.2
	c1,0.8,1.9,1.7,2.7,2.8c0.7,1.1,1.4,2.3,1.9,3.7c0.5,1.3,1,2.5,1.5,3.5v0.4c0.4,1.1,0.7,2.7,0.9,4.9c0.2,2.2,0.3,4.4,0.4,6.8
	c0.1,2.4,0.1,4.7,0.1,6.9c0,2.2,0,3.9,0,5c0,1.6-0.2,3.6-0.7,5.9c-0.4,2.3-1.1,4.4-2.1,6.5c-1,2-2.2,3.8-3.7,5.2
	c-1.5,1.4-3.4,2.1-5.5,2.1c-1.8,0-3.4-0.5-4.8-1.4c-1.4-0.9-2.6-2.1-3.5-3.6c-1-1.5-1.7-3-2.2-4.7
	C232.8,281.3,232.5,279.7,232.5,278.2z M240.5,283.7c0.1,0.6,0.4,1.2,0.9,1.9c0.5,0.6,1.1,0.9,1.9,0.9h0.7c2.3-2.1,3.8-4.5,4.5-7.2
	c0.7-2.7,1.1-5.6,1.1-8.6c0-0.7,0-1.8-0.1-3.3c-0.1-1.5-0.2-3.1-0.3-5c-0.1-1.8-0.3-3.8-0.5-5.8c-0.2-2-0.5-3.9-0.8-5.7
	c-0.3-1.8-0.7-3.3-1.2-4.7c-0.4-1.3-1-2.2-1.6-2.7c-0.1,0.1-0.1,0.2-0.2,0.3c-0.1,0.2-0.1,0.3-0.1,0.3c-1.2,1.4-2.2,3.4-3.1,5.8
	c-0.9,2.5-1.6,5.4-2.1,8.8c-0.5,3.4-0.7,7.2-0.6,11.4C239.1,274.4,239.6,278.9,240.5,283.7z"/>
<path d="M260.7,290.3c-0.1-6.1-0.3-12.2-0.5-18.2c-0.2-6.1-0.3-12.2-0.3-18.2c0-0.4,0-1.2,0-2.3c0-1.1,0-2.3,0-3.6
	c0-1.3,0-2.4,0-3.5c0-1.1,0-1.9,0-2.3c0.2-0.9,0.5-1.6,1-2.1c0.4-0.5,1.1-0.8,2.1-0.8c0.9,0,1.8,0.3,2.5,0.9c0.7,0.6,1.3,1.2,1.7,2
	l11.9,22.9c0.1,0.1,0.2,0.4,0.6,1c0.3,0.5,0.6,0.9,0.7,1.2c0.1,0.1,0.1,0.1,0.2,0.2c0.1,0.1,0.2,0.1,0.2,0.2l0.3-0.7l7-24.6
	c0.5-0.8,0.9-1.6,1.1-2.6c0.2-1,0.5-1.9,0.8-2.8c0.3-0.9,0.7-1.8,1.2-2.6c0.5-0.8,1.2-1.5,2.1-2.1h0.7c1.5,0,2.6,0.4,3.3,1.3
	c0.7,0.9,1.2,1.9,1.5,3.1c0.3,1.2,0.4,2.5,0.4,3.9c0,1.3,0,2.5,0,3.5c0,0.4,0,1.1,0.1,2.2c0.1,1.1,0.2,2.4,0.3,3.9
	c0.1,1.5,0.2,3.1,0.3,4.7c0.1,1.7,0.2,3.3,0.3,4.7c0.1,1.5,0.2,2.8,0.2,3.9c0.1,1.1,0.1,1.8,0.1,2.1v0.3c0.1,0.5,0.2,1.3,0.3,2.5
	c0.2,1.2,0.3,2.4,0.5,3.7c0.2,1.3,0.4,2.5,0.5,3.7c0.2,1.2,0.3,2,0.4,2.4c0.1,0.3,0.2,0.7,0.3,1.2c0.1,0.5,0.3,1.1,0.5,1.8
	c0.2,0.6,0.4,1.2,0.5,1.8c0.2,0.5,0.3,0.9,0.4,1.2c-0.2,1.3-0.5,2.2-0.9,2.9c-0.4,0.7-1.3,1-2.7,1c-0.2,0-0.4,0-0.7,0
	c-0.3,0-0.5,0-0.6,0c-0.2-0.1-0.5-0.4-0.9-0.8c-0.5-0.4-0.7-0.7-0.8-0.9l-1.3-4.5l-2.5-18.8v-0.7c-0.1-1-0.1-2-0.1-3.2
	c0-1.1,0-2.3,0-3.4s-0.1-2.3-0.2-3.5c-0.1-1.2-0.3-2.2-0.7-3.2l-0.4,0.5l-5.9,23.9c-0.1,0.6-0.1,1.2-0.2,1.9c-0.1,0.7-0.2,1.3-0.4,2
	c-0.2,0.6-0.5,1.2-1,1.6c-0.4,0.4-1.1,0.7-1.9,0.7c-0.3,0.1-0.7,0-1.1-0.2c-0.4-0.2-0.8-0.4-1.2-0.7c-0.4-0.3-0.7-0.6-1-0.9
	c-0.3-0.4-0.5-0.7-0.5-1l-10.5-16.6l-1.7-3.5v7.1c0,3.4,0.1,6.6,0.2,9.8c0.1,3.2,0.2,6.5,0.2,9.8c0,0.3,0,0.8,0,1.4
	c0,0.7,0,1.4,0,2.2c0,0.8,0,1.5,0,2.2c0,0.7,0,1.2,0,1.4c-0.2,0.7-0.5,1.2-0.9,1.7c-0.4,0.5-1,0.7-1.8,0.7c-1,0-1.9-0.2-2.4-0.5
	C261.6,291.9,261.1,291.2,260.7,290.3z"/>
<g>
	<path d="M355.6,256.6c-0.1-0.4-0.1-1-0.2-1.7c-0.1-0.7-0.2-1.3-0.2-2c-0.1-0.6-0.2-1.4-0.3-2.3h-0.7l-9.4,2.8
		c-0.3,0.4-0.7,0.7-1.4,0.7c-0.6,0-1.1,0-1.4,0c-0.8,0-1.6-0.3-2.3-1c-0.8-0.7-1.2-1.4-1.2-2.3c0-0.6,0.2-1.2,0.6-1.8
		c0.4-0.6,0.9-1,1.5-1.2l13.3-4.2c0.2-0.6,0.5-1.2,0.9-1.9c0.5-0.6,1.1-0.9,1.9-0.9c0.8,0,1.4,0.2,1.9,0.6c0.5,0.4,1.1,0.7,1.8,0.9
		c0.5-0.1,1.3-0.2,2.5-0.5c1.2-0.3,2.4-0.6,3.7-0.9c1.3-0.3,2.5-0.6,3.7-0.9c1.2-0.3,1.9-0.5,2.4-0.6c0.7-0.1,1.2-0.2,1.5-0.4
		c0.3-0.2,0.9-0.2,1.6-0.2c0.9,0,1.9,0.3,2.9,0.8c1,0.5,1.5,1.4,1.5,2.5c0,0.7-0.2,1.3-0.7,1.9c-0.5,0.5-1.1,0.9-1.8,1l-15.7,4v0.7
		c0,1.7,0.2,3.4,0.5,5c0.3,1.6,0.4,3.3,0.3,4.9l2.8,25.5v1.8c0,0.7,0,1.3,0,2c0,0.7-0.1,1.3-0.3,1.9c-0.2,0.5-0.5,1-0.9,1.4
		c-0.4,0.4-1.1,0.5-2,0.5c-0.7,0-1.4-0.3-2.1-0.8c-0.7-0.5-1.1-1.2-1.2-2l-3.1-32.7V256.6z"/>
	<path d="M385.4,271.6h-0.2c0,2.3,0,4.5,0.1,6.6c0.1,2.2,0.1,4.4,0.1,6.7c0,0.7,0,1.3,0,1.9c0,0.6-0.1,1.2-0.3,1.7
		c-0.2,0.5-0.5,0.9-0.9,1.2c-0.4,0.3-1,0.5-1.9,0.5c-1.5,0-2.6-0.8-3.2-2.4c-0.3-2.6-0.4-5.1-0.5-7.6c-0.1-2.5-0.2-5.1-0.5-7.7
		c-0.1-0.8-0.4-1.5-0.9-2.2c-0.5-0.7-0.8-1.4-0.8-2.1c0-0.5,0.2-0.9,0.5-1.2c0.4-0.3,0.5-0.8,0.5-1.4c0-4.3-0.1-8.5-0.4-12.7
		c-0.2-4.2-0.4-8.4-0.4-12.6v-1.4c0.4-0.5,0.8-0.9,1.2-1c0.4-0.1,0.9-0.2,1.6-0.2c1.6,0,2.6,0.5,3,1.4c0.4,1,0.7,2.1,0.7,3.5
		l0.7,21.9c0.1,0.2,0.2,0.4,0.3,0.8c0.1,0.4,0.3,0.5,0.6,0.5c0.4,0,1.1-0.1,2.1-0.3c1-0.2,2.1-0.4,3.3-0.7s2.2-0.5,3.1-0.8
		c0.9-0.3,1.5-0.6,1.6-0.9c0-0.4,0-1.1,0-2.1c0-1,0-1.7,0-2.1c0-2.3,0-4.6-0.1-6.8c-0.1-2.3-0.2-4.5-0.3-6.8c0-0.4-0.1-1.3-0.2-2.8
		c-0.2-1.5-0.3-3-0.5-4.7c-0.2-1.7-0.3-3.3-0.5-4.7c-0.1-1.5-0.2-2.4-0.2-2.8c-0.1-0.1-0.1-0.2-0.1-0.5c0-0.3,0-0.5,0-0.6
		c0-0.7,0.3-1.2,0.8-1.6c0.5-0.3,1.1-0.5,1.7-0.5c1.3,0,2.3,0.4,2.9,1.2c0.6,0.8,1.1,1.8,1.4,3c0.1,0.6,0.1,1.6,0.2,3
		c0.1,1.4,0.2,3,0.4,4.6c0.2,1.6,0.3,3.2,0.5,4.7c0.1,1.5,0.2,2.5,0.3,3v1.3c0,0.3,0,0.8,0.1,1.6c0.1,0.8,0.2,1.3,0.2,1.6v33.8
		c0.3,0.9,0.5,1.7,0.5,2.3c0.1,0.6,0.1,1.3,0.1,2.1c0,0.7-0.2,1.4-0.5,2.1c-0.4,0.7-1,1.1-1.9,1.1c-0.8,0-1.5-0.2-2.1-0.6
		c-0.6-0.4-1.2-0.9-1.6-1.5c-0.5-0.6-0.8-1.3-1.1-2c-0.3-0.7-0.4-1.5-0.4-2.3v-17L385.4,271.6z"/>
	<path d="M411.3,291c-0.5-2.2-1-4.3-1.2-6.2c-0.3-1.9-0.5-4-0.6-6.2c-0.1-1.3-0.1-2.3,0-3.3c0.1-0.9-0.1-1.9-0.3-3
		c-0.1-0.2-0.2-0.4-0.4-0.5c-0.2-0.1-0.4-0.2-0.6-0.4c-0.2-0.2-0.4-0.4-0.5-0.6s-0.2-0.6-0.2-1.2c0-0.4,0.1-0.8,0.3-1.2
		c0.2-0.3,0.4-0.6,0.6-0.9c0.2-0.3,0.4-0.6,0.6-1c0.2-0.4,0.3-0.8,0.3-1.3v-1.2c0-0.5-0.1-1.5-0.2-2.8c-0.1-1.3-0.2-2.7-0.3-4.2
		c-0.1-1.5-0.2-2.9-0.3-4.2c-0.1-1.3-0.2-2.2-0.2-2.7c-0.1-0.9-0.3-1.8-0.7-2.5c-0.4-0.7-0.7-1.5-0.7-2.5c0-1.8,0.4-3,1.1-3.7
		c0.7-0.7,2-1.1,3.8-1.1c0.4,0,0.7,0.2,0.9,0.5c0.2,0.3,0.5,0.5,0.9,0.5h0.3c0.2-0.1,0.4-0.1,0.7-0.2c0.3-0.1,0.5-0.1,0.7-0.1
		c4.6-2,8.2-3.5,10.8-4.6c2.6-1.1,4.5-1.9,5.8-2.4c1.3-0.5,2.2-0.8,2.7-0.8c0.5-0.1,0.9,0,1.2,0.2c0.7,0.1,1.1,0.3,1.4,0.6
		c0.2,0.3,0.4,0.8,0.4,1.4c0,0.5-0.1,1.1-0.2,1.6c-0.2,0.5-0.5,1-1.2,1.2l-10.8,5.2l-0.3,0.3l-9.1,3.9c-0.3,0.1-0.5,0.4-0.6,0.8
		c-0.1,0.4-0.1,0.8-0.1,1.1c0,0.4,0.1,1.2,0.2,2.4c0.1,1.2,0.2,2.3,0.3,3.6c0.1,1.2,0.2,2.3,0.4,3.3c0.1,1,0.2,1.4,0.3,1.4h0.1
		l0.1-0.1c0.6-0.4,1.6-1.2,2.9-2.3c1.3-1.1,2.7-2.2,4-3.3c1.4-1.1,2.6-2.1,3.6-2.9c1-0.9,1.6-1.3,1.6-1.3c0.6,0,1.2,0.3,1.6,0.9
		c0.5,0.6,0.7,1.2,0.7,1.9c0,0.7-0.1,1.4-0.4,2.2c-0.3,0.8-0.7,1.5-1.3,1.9l-12.9,11.5c0,0.5,0,1,0,1.3c0,0.3,0,0.7,0,1
		c0,0.4,0,0.6,0,0.9c0,2,0.1,3.9,0.4,5.9c0.3,2,0.4,3.9,0.4,5.9h0.3c0.1,0,0.3-0.2,0.7-0.7c0.4-0.4,0.8-0.8,1-1.1
		c0.1-0.2,0.4-0.5,0.8-1.1c0.4-0.5,1.1-1.5,2.1-2.7c1-1.3,2.3-2.9,4-5c1.6-2.1,3.8-4.7,6.3-7.9c0.2-0.2,0.5-0.5,0.9-1
		c0.4-0.4,0.7-0.7,0.8-0.7c0.2-0.2,0.5-0.2,1-0.2c0.5,0,0.9,0.1,1.1,0.2c0.3,0.1,0.6,0.4,1.1,0.9c0.4,0.5,0.7,1,0.7,1.4
		c0,0.7-0.3,1.5-1,2.6c-0.7,1.1-1.5,2.2-2.4,3.3c-0.9,1.2-1.9,2.3-2.8,3.3c-0.9,1.1-1.6,1.9-2.1,2.6c-0.8,1.2-1.7,2.7-2.8,4.4
		c-1.1,1.7-2.2,3.4-3.5,4.9c-1.3,1.6-2.7,2.9-4.2,4c-1.5,1.1-3.1,1.7-4.8,1.7c-0.8,0-1.4-0.1-1.8-0.4
		C412.3,292.2,411.8,291.7,411.3,291z"/>
</g>
<path d="M161,419h-0.6c0,5.4,0.1,10.7,0.3,16c0.2,5.2,0.3,10.6,0.3,16.2c0,1.6,0,3.1-0.1,4.7c-0.1,1.5-0.3,2.9-0.7,4.2
	c-0.4,1.3-1.1,2.3-2.1,3c-1,0.7-2.5,1.1-4.5,1.1c-3.7,0-6.3-1.9-7.7-5.8c-0.7-6.2-1.1-12.3-1.2-18.3c-0.1-6-0.5-12.2-1.2-18.5
	c-0.3-1.9-1-3.6-2.3-5.4c-1.3-1.7-1.9-3.4-1.9-5c0-1.2,0.4-2.2,1.3-3c0.9-0.8,1.3-1.9,1.3-3.4c0-10.3-0.3-20.5-0.9-30.6
	c-0.6-10.1-0.9-20.3-0.9-30.4v-3.4c0.9-1.3,1.9-2.1,2.8-2.4c0.9-0.3,2.2-0.4,3.8-0.4c3.8,0,6.3,1.2,7.3,3.5c1.1,2.3,1.7,5.1,1.8,8.4
	l1.8,52.8c0.1,0.4,0.4,1,0.7,1.9c0.3,0.9,0.8,1.3,1.5,1.3c0.9,0,2.6-0.2,5.2-0.7c2.5-0.5,5.2-1,7.9-1.6c2.8-0.6,5.3-1.3,7.5-2
	c2.2-0.7,3.6-1.4,4-2.1c0-0.9,0-2.6,0.1-5c0.1-2.4,0.1-4,0.1-5c0-5.6-0.1-11-0.2-16.5c-0.1-5.4-0.4-10.9-0.8-16.5
	c0-0.9-0.2-3.1-0.6-6.6s-0.8-7.3-1.2-11.4c-0.4-4.1-0.8-7.9-1.1-11.4c-0.3-3.5-0.5-5.7-0.5-6.6c-0.1-0.1-0.2-0.6-0.2-1.3
	c0-0.7,0-1.2,0-1.5c0-1.7,0.6-3,1.9-3.8c1.3-0.8,2.6-1.2,4.1-1.2c3.2,0,5.5,1,7,3c1.5,2,2.6,4.4,3.3,7.3c0.1,1.5,0.3,3.9,0.6,7.3
	c0.3,3.4,0.6,7.1,1,11.1c0.4,4,0.8,7.7,1.1,11.2c0.3,3.5,0.6,5.9,0.7,7.2v3.2c0,0.7,0.1,2,0.3,3.9c0.2,1.9,0.4,3.2,0.5,3.9v81.3
	c0.7,2.3,1.1,4.1,1.3,5.6c0.2,1.5,0.3,3.2,0.3,5.2c0,1.6-0.4,3.3-1.3,5.1c-0.9,1.8-2.3,2.7-4.5,2.7c-1.9,0-3.5-0.5-5.1-1.4
	c-1.5-0.9-2.8-2.1-4-3.6c-1.1-1.5-2-3.1-2.7-4.9c-0.7-1.8-1-3.6-1-5.5V414L161,419z"/>
<path d="M212.1,434.8c0.1-0.8,0.1-2.9,0-6.3c-0.1-3.4-0.2-7.7-0.1-12.8c0.1-5.1,0.2-10.7,0.4-16.8c0.2-6.1,0.7-12.2,1.4-18.4
	c0.7-6.2,1.8-12.2,3.2-17.9c1.4-5.8,3.2-10.7,5.5-15c0.8-3.6,2.7-6,5.8-7.4c3-1.4,7.3-2.2,12.9-2.5c3.6,0,6.6,0.9,9.1,2.8
	c2.5,1.9,4.7,4.1,6.4,6.8c1.8,2.7,3.3,5.7,4.7,8.8c1.3,3.2,2.5,6,3.6,8.5v1c0.9,2.6,1.6,6.6,2.1,11.8c0.5,5.2,0.8,10.7,1,16.5
	c0.2,5.7,0.3,11.3,0.3,16.6c0,5.3,0,9.3,0,12.1c0,4-0.5,8.7-1.6,14.2c-1.1,5.5-2.7,10.7-5.1,15.6c-2.3,4.9-5.3,9.1-9,12.5
	c-3.7,3.4-8.1,5.2-13.3,5.2c-4.4,0-8.2-1.1-11.6-3.4c-3.4-2.2-6.2-5.1-8.5-8.6c-2.3-3.5-4.1-7.3-5.3-11.4
	C212.7,442.4,212.1,438.5,212.1,434.8z M231.4,448.1c0.3,1.5,1,2.9,2.3,4.5c1.3,1.5,2.7,2.3,4.5,2.3h1.6c5.6-5,9.2-10.8,10.9-17.4
	c1.7-6.5,2.6-13.5,2.6-20.7c0-1.7-0.1-4.4-0.2-7.9c-0.1-3.6-0.4-7.6-0.7-12c-0.3-4.4-0.8-9.1-1.3-14c-0.5-4.9-1.2-9.5-2-13.8
	c-0.8-4.3-1.7-8-2.8-11.2c-1.1-3.2-2.3-5.4-3.8-6.5c-0.1,0.1-0.3,0.4-0.5,0.8c-0.2,0.4-0.3,0.7-0.3,0.8c-2.8,3.4-5.3,8.1-7.5,14.1
	c-2.3,5.9-3.9,13-5.1,21.1c-1.1,8.1-1.6,17.3-1.4,27.4C227.9,425.6,229.1,436.5,231.4,448.1z"/>
<path d="M277.6,434.8c0.1-0.8,0.1-2.9,0-6.3c-0.1-3.4-0.2-7.7-0.1-12.8c0.1-5.1,0.2-10.7,0.4-16.8c0.2-6.1,0.7-12.2,1.4-18.4
	c0.7-6.2,1.8-12.2,3.2-17.9c1.4-5.8,3.2-10.7,5.5-15c0.8-3.6,2.7-6,5.8-7.4c3-1.4,7.3-2.2,12.9-2.5c3.6,0,6.6,0.9,9.1,2.8
	c2.5,1.9,4.7,4.1,6.4,6.8c1.8,2.7,3.3,5.7,4.7,8.8c1.3,3.2,2.5,6,3.6,8.5v1c0.9,2.6,1.6,6.6,2.1,11.8c0.5,5.2,0.8,10.7,1,16.5
	c0.2,5.7,0.3,11.3,0.3,16.6c0,5.3,0,9.3,0,12.1c0,4-0.5,8.7-1.6,14.2c-1.1,5.5-2.7,10.7-5.1,15.6c-2.3,4.9-5.3,9.1-9,12.5
	c-3.7,3.4-8.1,5.2-13.3,5.2c-4.4,0-8.2-1.1-11.6-3.4c-3.4-2.2-6.2-5.1-8.5-8.6c-2.3-3.5-4.1-7.3-5.3-11.4
	C278.2,442.4,277.6,438.5,277.6,434.8z M296.8,448.1c0.3,1.5,1,2.9,2.3,4.5c1.3,1.5,2.7,2.3,4.5,2.3h1.6c5.6-5,9.2-10.8,10.9-17.4
	c1.7-6.5,2.6-13.5,2.6-20.7c0-1.7-0.1-4.4-0.2-7.9c-0.1-3.6-0.4-7.6-0.7-12c-0.3-4.4-0.8-9.1-1.3-14c-0.5-4.9-1.2-9.5-2-13.8
	c-0.8-4.3-1.7-8-2.8-11.2c-1.1-3.2-2.3-5.4-3.8-6.5c-0.1,0.1-0.3,0.4-0.5,0.8c-0.2,0.4-0.3,0.7-0.3,0.8c-2.8,3.4-5.3,8.1-7.5,14.1
	c-2.3,5.9-3.9,13-5.1,21.1c-1.1,8.1-1.6,17.3-1.4,27.4C293.3,425.6,294.6,436.5,296.8,448.1z"/>
<path d="M366.6,463.6c0-1.2,0.4-2.2,1.3-3.2c0.9-0.9,1.3-1.9,1.3-3c0-0.3-0.3-0.6-0.8-1c-0.5-0.4-0.9-0.7-1-0.8
	c-1.3-2-2.1-4.2-2.2-6.7c-0.1-2.5-0.2-4.9-0.2-7.1c0-12.2,0.1-24.2,0.2-36.1c0.1-11.9,0.2-23.9,0.2-36.1c-1.3,0-2.6,0.3-3.8,0.9
	c-1.2,0.6-2.4,1.3-3.8,2c-1.3,0.7-2.7,1.4-4.2,2c-1.5,0.6-3,0.9-4.8,0.9h-3.2c-0.3-0.4-0.9-0.8-2-1.1c-1.1-0.3-1.6-0.8-1.6-1.3V367
	c0.7-0.4,1.2-1,1.7-1.7c0.5-0.7,0.8-1.4,1.1-1.9l20-9.9l0.8-1c-0.3-3.7-0.1-6.7,0.6-8.9c0.7-2.2,3-3.4,6.9-3.4
	c1.1,0,2.2,0.2,3.5,0.6c1.3,0.4,2.4,0.9,3.6,1.6c1.1,0.7,2,1.5,2.6,2.6c0.6,1.1,0.8,2.3,0.5,3.6c6.6,0.3,13.2,0.8,19.6,1.5
	c6.5,0.7,12.3,2.3,17.5,4.8c5.2,2.4,9.4,6.1,12.6,10.8c3.2,4.8,4.9,11.3,4.9,19.6c0,7.5-1.5,15.1-4.4,22.6
	c-2.9,7.5-7.1,14-12.5,19.4l-37.7,37.5c-1.9,1.9-3.4,3.2-4.7,4c-1.3,0.8-3.1,1.2-5.5,1.2c-2,0-3.6-0.6-4.9-1.7
	C367.3,467.1,366.6,465.6,366.6,463.6z M383.5,445.7h-0.8l1.6-1c0.1-0.1,0.6-0.6,1.5-1.3s1.8-1.6,2.9-2.6c1.1-1,2.1-1.9,3.2-2.9
	c1.1-0.9,1.9-1.7,2.6-2.4c3-3.2,6.2-6.5,9.6-10.1c3.4-3.6,6.4-7.4,9.2-11.4s5.1-8.3,6.8-12.7c1.8-4.4,2.7-9.1,2.7-14
	c0-4.6-0.9-8.6-2.6-11.8c-1.7-3.2-4-5.9-6.8-7.9c-2.8-2-6.2-3.5-10-4.5c-3.8-0.9-7.9-1.4-12.3-1.4c-0.4,0-1.6,0.1-3.5,0.3
	c-1.9,0.2-3.3,0.6-4.1,1.3V445.7z"/>
<path d="M151.5,513.7c-0.1-0.5-0.1-1.2-0.2-2c-0.1-0.8-0.2-1.6-0.3-2.4c-0.1-0.8-0.2-1.7-0.3-2.7h-0.8l-11.2,3.4
	c-0.3,0.5-0.9,0.8-1.6,0.8c-0.8,0-1.3,0-1.7,0c-0.9,0-1.9-0.4-2.8-1.2c-1-0.8-1.4-1.7-1.4-2.7c0-0.7,0.2-1.4,0.7-2.1
	c0.5-0.7,1.1-1.2,1.8-1.4l15.9-5c0.2-0.7,0.6-1.5,1.1-2.2c0.6-0.8,1.3-1.1,2.2-1.1c0.9,0,1.7,0.2,2.3,0.7c0.6,0.5,1.3,0.8,2.1,1.1
	c0.6-0.1,1.6-0.3,3-0.6c1.4-0.3,2.8-0.7,4.4-1c1.5-0.4,3-0.7,4.4-1c1.4-0.3,2.3-0.6,2.9-0.7c0.8-0.1,1.4-0.3,1.8-0.5s1-0.3,1.9-0.3
	c1.1,0,2.3,0.3,3.5,1c1.2,0.7,1.8,1.6,1.8,3c0,0.9-0.3,1.6-0.9,2.2c-0.6,0.6-1.3,1-2.2,1.2l-18.7,4.7v0.9c0,2,0.2,4,0.5,6
	c0.4,2,0.5,3.9,0.3,5.9l3.4,30.5v2.2c0,0.8,0,1.6,0,2.4c0,0.8-0.2,1.6-0.4,2.2c-0.2,0.7-0.6,1.2-1.1,1.6c-0.5,0.4-1.3,0.6-2.4,0.6
	c-0.8,0-1.6-0.3-2.5-1c-0.9-0.7-1.4-1.4-1.4-2.4l-3.7-39.1V513.7z"/>
<path d="M176.4,539.6c0.1-0.4,0.1-1.4,0-3.2c-0.1-1.7-0.1-3.8,0-6.4c0-2.5,0.1-5.3,0.2-8.3c0.1-3,0.3-6.1,0.7-9.2
	c0.4-3.1,0.9-6.1,1.6-8.9c0.7-2.9,1.6-5.3,2.7-7.4c0.4-1.8,1.3-3,2.9-3.7c1.5-0.7,3.6-1.1,6.4-1.2c1.8,0,3.3,0.5,4.5,1.4
	c1.2,0.9,2.3,2.1,3.2,3.4c0.9,1.3,1.7,2.8,2.3,4.4c0.7,1.6,1.2,3,1.8,4.2v0.5c0.5,1.3,0.8,3.3,1,5.9c0.2,2.6,0.4,5.3,0.5,8.2
	c0.1,2.9,0.1,5.6,0.1,8.2c0,2.6,0,4.6,0,6c0,2-0.3,4.3-0.8,7c-0.5,2.7-1.4,5.3-2.5,7.7c-1.1,2.4-2.6,4.5-4.5,6.2
	c-1.8,1.7-4,2.6-6.6,2.6c-2.2,0-4.1-0.6-5.8-1.7c-1.7-1.1-3.1-2.5-4.2-4.3c-1.2-1.7-2-3.6-2.6-5.7
	C176.7,543.3,176.4,541.4,176.4,539.6z M186,546.2c0.1,0.7,0.5,1.5,1.1,2.2c0.6,0.8,1.4,1.1,2.2,1.1h0.8c2.8-2.5,4.6-5.4,5.4-8.6
	c0.9-3.3,1.3-6.7,1.3-10.3c0-0.9,0-2.2-0.1-3.9c-0.1-1.8-0.2-3.8-0.3-6c-0.2-2.2-0.4-4.5-0.6-6.9c-0.3-2.4-0.6-4.7-1-6.9
	c-0.4-2.1-0.9-4-1.4-5.6c-0.5-1.6-1.2-2.7-1.9-3.3c-0.1,0.1-0.1,0.2-0.2,0.4c-0.1,0.2-0.1,0.3-0.1,0.4c-1.4,1.7-2.6,4-3.7,7
	c-1.1,3-2,6.5-2.5,10.5c-0.6,4-0.8,8.6-0.7,13.6C184.3,535,184.9,540.4,186,546.2z"/>
<path d="M269.5,557.6c0.1-0.3,0.1-1,0.2-1.9c0.1-0.9,0.2-1.9,0.4-2.9c0.2-1,0.3-2,0.4-2.9c0.1-0.9,0.2-1.5,0.3-1.9
	c0.3-3,0.7-5.9,1.2-8.8c0.5-2.9,0.7-5.9,0.7-8.8v-1.5l-1.6-0.8c-0.3-0.1-0.9-0.6-2-1.3c-1.1-0.7-2.2-1.5-3.5-2.5
	c-1.3-0.9-2.5-1.9-3.8-2.8c-1.2-1-2.2-1.7-2.9-2.3c-0.4-0.3-1-0.8-1.9-1.5c-0.9-0.8-1.8-1.6-2.8-2.5c-1-0.9-1.9-1.7-2.7-2.6
	c-0.9-0.8-1.4-1.4-1.8-1.7c-0.5-0.5-1-1.1-1.5-1.8c-0.5-0.7-0.7-1.4-0.7-2.1c0-1.1,0.4-1.9,1.3-2.4c0.9-0.5,1.8-0.7,2.8-0.7
	c0.7,0,1.3,0.1,2.1,0.2c0.7,0.2,1.3,0.5,1.9,1c2.5,2.8,5.3,5.5,8.4,8.3c3.1,2.8,6.2,5.1,9.5,7.1l0.4-1.3l4.1-26.6
	c0.1-0.7,0.5-1.2,1.2-1.4c0.7-0.2,1.3-0.3,1.9-0.3c1.7,0,3,0.4,3.9,1.2c0.9,0.8,1.3,2.2,1.3,4.1v0.2c0,0.1,0,0.2-0.1,0.5
	c-0.1,0.3-0.2,0.6-0.3,0.9c-0.1,0.3-0.2,0.6-0.2,0.9c-0.1,0.3-0.1,0.5-0.1,0.5c-0.2,0.8-0.5,2.3-0.8,4.6c-0.3,2.3-0.7,5-1.1,8.1
	c-0.4,3.1-0.8,6.6-1.3,10.3c-0.5,3.7-0.9,7.5-1.4,11.3c-0.5,3.8-0.9,7.4-1.4,10.9c-0.5,3.5-0.9,6.6-1.3,9.3c0.1,0.7,0.1,1.4,0.1,2.3
	c0,0.9-0.1,1.7-0.3,2.5c-0.3,0.8-0.7,1.4-1.2,2c-0.6,0.5-1.3,0.8-2.3,0.8c-1.2,0-2.3-0.3-3.3-1C270.5,559.7,269.9,558.8,269.5,557.6
	z"/>
<path d="M291.2,539.6c0.1-0.4,0.1-1.4,0-3.2c-0.1-1.7-0.1-3.8,0-6.4c0-2.5,0.1-5.3,0.2-8.3c0.1-3,0.3-6.1,0.7-9.2
	c0.4-3.1,0.9-6.1,1.6-8.9c0.7-2.9,1.6-5.3,2.7-7.4c0.4-1.8,1.3-3,2.9-3.7c1.5-0.7,3.6-1.1,6.4-1.2c1.8,0,3.3,0.5,4.5,1.4
	c1.2,0.9,2.3,2.1,3.2,3.4c0.9,1.3,1.7,2.8,2.3,4.4c0.7,1.6,1.2,3,1.8,4.2v0.5c0.5,1.3,0.8,3.3,1,5.9c0.2,2.6,0.4,5.3,0.5,8.2
	c0.1,2.9,0.1,5.6,0.1,8.2c0,2.6,0,4.6,0,6c0,2-0.3,4.3-0.8,7c-0.5,2.7-1.4,5.3-2.5,7.7c-1.1,2.4-2.6,4.5-4.5,6.2
	c-1.8,1.7-4,2.6-6.6,2.6c-2.2,0-4.1-0.6-5.8-1.7c-1.7-1.1-3.1-2.5-4.2-4.3c-1.1-1.7-2-3.6-2.6-5.7
	C291.4,543.3,291.2,541.4,291.2,539.6z M300.7,546.2c0.1,0.7,0.5,1.5,1.1,2.2c0.6,0.8,1.4,1.1,2.2,1.1h0.8c2.8-2.5,4.6-5.4,5.4-8.6
	c0.9-3.3,1.3-6.7,1.3-10.3c0-0.9,0-2.2-0.1-3.9c-0.1-1.8-0.2-3.8-0.3-6c-0.2-2.2-0.4-4.5-0.6-6.9c-0.3-2.4-0.6-4.7-1-6.9
	c-0.4-2.1-0.9-4-1.4-5.6c-0.5-1.6-1.2-2.7-1.9-3.3c-0.1,0.1-0.1,0.2-0.2,0.4c-0.1,0.2-0.1,0.3-0.1,0.4c-1.4,1.7-2.6,4-3.7,7
	c-1.1,3-2,6.5-2.5,10.5c-0.6,4-0.8,8.6-0.7,13.6C299,535,299.6,540.4,300.7,546.2z"/>
<path d="M350.8,543.1c-0.7,1.4-1.6,2.9-2.6,4.6c-1,1.7-2.2,3.3-3.5,4.9c-1.3,1.5-2.8,2.8-4.3,3.9c-1.5,1.1-3.2,1.6-5,1.6
	c-2.2,0-4-0.7-5.3-2c-1.3-1.3-2.3-2.9-3-4.9c-0.7-1.9-1.1-4-1.3-6.1c-0.2-2.1-0.3-4.1-0.3-5.8v-2.6c0.1-0.5,0.1-1.3,0.2-2.4
	c0.1-1.1,0.2-2.3,0.4-3.6c0.2-1.3,0.3-2.8,0.4-4.2c0.1-1.5,0.3-2.9,0.4-4.2c0.2-1.3,0.3-2.5,0.4-3.6c0.1-1.1,0.2-1.8,0.2-2.4
	c-0.3-0.7-0.3-1.3-0.2-2c0.1-0.7,0.3-1.3,0.7-1.9c0.4-0.6,0.8-1,1.4-1.4c0.6-0.4,1.2-0.5,2-0.5c0.2,0,0.5,0.1,1,0.2
	c0.5,0.1,1,0.3,1.5,0.6c0.5,0.3,1,0.5,1.4,0.8c0.4,0.3,0.6,0.6,0.6,0.8v3.7c-0.9,7.1-1.5,12.7-1.8,17c-0.3,4.2-0.4,7.5-0.3,9.8
	c0.1,2.3,0.3,3.9,0.6,4.8c0.3,0.9,0.7,1.4,1,1.8c0.8,0.3,1.6,0.4,2.3,0.2c0.8-0.2,1.7-0.8,2.7-1.8c1.1-1.1,2.3-2.7,3.8-4.9
	c1.5-2.2,3.3-5.1,5.4-8.8c0.1-0.2,0.3-0.6,0.4-1.1c0.2-0.5,0.3-0.9,0.3-1.1c-0.1-4.3-0.1-8.7,0-13.1c0.1-4.4,0.2-8.8,0.4-13.1
	c0.3-0.7,0.7-1.2,1.3-1.6s1.2-0.6,1.9-0.6c0.3,0,0.7,0.1,1.2,0.3c0.5,0.2,1.1,0.5,1.6,0.8c0.5,0.4,1,0.7,1.4,1.1s0.6,0.8,0.6,1.2
	v29.1c0.5,3,0.8,5.9,1.1,8.9c0.3,3,0.6,6,1.1,8.9c0,0.3,0.1,1,0.2,2c0.2,1,0.3,2.1,0.5,3.3s0.4,2.3,0.5,3.3c0.2,1,0.3,1.6,0.3,1.9
	v1.2c0,2.4-1.3,3.6-3.8,3.8c-1.1,0.1-2.1-0.3-2.8-1.4c-0.8-1.1-1.4-2.5-1.8-4.2c-0.5-1.7-0.8-3.7-1.1-5.9c-0.3-2.2-0.5-4.3-0.7-6.3
	c-0.2-2-0.4-3.9-0.6-5.6C351.4,545,351.1,543.8,350.8,543.1z"/>
<path d="M370.6,534.1c-0.4-0.9-0.7-1.5-0.9-2.1c-0.2-0.5-0.3-1.1-0.3-1.9c0-0.6,0.1-1.1,0.2-1.6c0.2-0.5,0.2-1,0.2-1.6
	c0-1.4,0-2.8-0.1-4c-0.1-1.2-0.2-2.6-0.3-4.1c-0.1-0.2-0.3-0.4-0.7-0.5c-0.4-0.1-0.8-0.3-1.3-0.5c-0.5-0.2-0.9-0.6-1.2-1
	c-0.4-0.5-0.5-1.1-0.5-2c0-0.8,0.2-1.5,0.5-2c0.4-0.6,0.7-1.1,1.1-1.6c0.4-0.5,0.8-1,1.1-1.6c0.4-0.6,0.5-1.2,0.5-2
	c0-0.3,0-0.9-0.1-1.8c-0.1-0.9-0.1-1.8-0.1-2.8c0-1-0.1-1.9-0.1-2.8c0-0.9,0-1.5,0-1.8v-0.2v-0.2c0.3-0.6,0.5-1.1,0.6-1.5
	c0.2-0.4,0.3-0.7,0.5-0.9s0.5-0.3,0.8-0.4c0.3-0.1,0.8-0.1,1.3-0.1c1.4,0,2.4,0.3,3.1,0.8c0.7,0.5,1.1,1.1,1.4,1.8
	c0.3,0.7,0.4,1.3,0.5,1.9c0.1,0.6,0.2,0.9,0.5,1l7.1-6.2h0.4c2.3-1.5,4.7-2.7,7.3-3.5c2.6-0.8,5.3-1.2,8.1-1.2
	c0.9,0,1.9,0.1,3.1,0.3c1.2,0.2,2.4,0.5,3.4,1c1.1,0.5,2,1.1,2.8,1.9s1.1,1.8,1.1,3c0,1.3-0.2,2.7-0.5,4c-0.3,1.4-0.8,2.7-1.3,4.1
	c-0.6,1.3-1.2,2.6-2,3.8c-0.8,1.2-1.6,2.3-2.4,3.1c-0.3,0.7-2.4,2.6-6.3,5.5c-3.9,3-9.7,7.4-17.3,13.2l47.3,3
	c0.7,0.1,1.6,0.1,2.7,0.1c1.1,0,2.3,0.1,3.4,0.3c1.1,0.2,2,0.6,2.8,1.1c0.8,0.6,1.2,1.4,1.2,2.5c0,0.6-0.1,1.1-0.2,1.4
	c-0.2,0.4-0.4,0.7-0.6,0.9c-0.2,0.2-0.5,0.4-0.8,0.6c-0.3,0.2-0.6,0.5-0.8,0.8h-1.7h-1.7c-1.3-0.1-2.7-0.3-4.1-0.5
	c-1.4-0.2-3.1-0.4-4.9-0.7c-1.9-0.3-4.1-0.5-6.6-0.8c-2.5-0.3-5.5-0.5-9-0.7c-3.5-0.2-7.5-0.4-12.2-0.5c-4.6-0.1-10-0.2-16.1-0.2
	c-0.1,0-0.1,0.1-0.2,0.3c-0.1,0.2-0.1,0.4-0.1,0.5c0,2.5,0.2,4.9,0.6,7.3c0.4,2.4,0.6,4.8,0.6,7.1c0,0.5,0,1-0.1,1.5
	c-0.1,0.6-0.3,1.1-0.5,1.6c-0.3,0.5-0.6,0.9-1,1.2c-0.4,0.3-0.9,0.5-1.5,0.5c-0.4,0-0.9-0.1-1.4-0.2c-0.5-0.2-1-0.4-1.5-0.7
	c-0.5-0.3-0.9-0.7-1.3-1.1s-0.6-0.9-0.7-1.4L370.6,534.1z M377.2,512.4c0,1.6,0,3.2,0.1,4.6c0.1,1.4,0.2,3,0.3,4.7h0.3
	c0.1,0,0.2-0.1,0.5-0.2c0.3-0.1,0.9-0.5,2-1.2c1.1-0.7,2.7-1.8,4.8-3.3c2.2-1.5,5.2-3.6,9.2-6.3c0.8-0.5,1.6-1.2,2.6-2.4
	c0.9-1.1,1.8-2.3,2.6-3.6c0.8-1.3,1.4-2.6,2-3.9c0.5-1.3,0.8-2.3,0.8-3.2c0-0.7-0.3-1-0.9-1s-1.2,0-1.6,0c-1,0-2.1,0.2-3.4,0.5
	c-1.2,0.3-2.7,1-4.5,2s-3.8,2.4-6.2,4.2c-2.4,1.8-5.2,4.3-8.4,7.4V512.4z"/>
<path d="M148,650.7c0.1-1.8,0.1-3.5-0.1-5.3c-0.1-1.8-0.3-3.5-0.5-5.3c-0.1-0.4-0.2-1.1-0.3-2.1c-0.1-1-0.2-1.5-0.2-1.7
	c0-0.1-0.1-0.3-0.3-0.6c-0.2-0.3-0.3-0.5-0.3-0.6l0.3-0.3c0.3-0.3,0.4-0.4,0.3-0.4v-25.5h-0.5c-1.1,1.2-2.3,2.6-3.7,4
	c-1.4,1.4-3.1,2.1-5,2.1c-1.4,0-2.8-0.5-4-1.5c-1.3-1-1.9-2.2-1.9-3.8v-0.3c0-0.1,0-0.2,0.1-0.4c0.1-0.2,0.2-0.4,0.3-0.5
	c0.1-0.3,0.2-0.5,0.3-0.7l14.8-13v-7.3c0-0.9,0.5-1.6,1.6-2c1.1-0.5,1.9-0.7,2.6-0.7c1.1,0,2.2,0.3,3.2,0.9c1,0.6,1.9,0.9,2.9,0.9
	c0.9,0,1.7-0.3,2.4-0.8c0.7-0.5,1.4-1,2.1-1.5c3.4-2,6.6-3.6,9.7-4.6c3.1-1.1,6.6-1.6,10.5-1.6c1.7,0,3.7,0.2,6,0.5
	c2.3,0.3,4.6,0.9,6.7,1.7c2.2,0.8,4,1.9,5.5,3.3c1.5,1.4,2.2,3.2,2.2,5.4c0,4-0.8,7.8-2.4,11.4c-1.6,3.6-3.8,6.8-6.6,9.7
	c-3.7,3.5-7.2,6.7-10.4,9.5c-3.2,2.8-6.8,5.6-10.8,8.4c-0.1,0.1-0.2,0.2-0.3,0.3c-0.1,0.1-0.2,0.2-0.3,0.3l-12.8,8.9
	c-0.4,0.4-0.7,1-0.7,1.9c0,0.9,0,1.5,0,1.8c0,2.6,0.2,5.1,0.5,7.6c0.3,2.5,0.6,5,1,7.6c0.4,2.6,0.7,5.1,1,7.7
	c0.3,2.6,0.5,5.1,0.5,7.7c0,1.4-0.3,2.7-1,3.8c-0.7,1.1-1.8,1.7-3.5,1.7c-1.2,0-2.5-0.5-3.9-1.5c-1.4-1-2.1-2.2-2.3-3.5L148,650.7z
	 M158.5,625.2l24.1-18.4c1.1-0.8,2.1-1.8,3.2-3.1c1.1-1.3,2.1-2.6,3-4.1c0.9-1.5,1.7-3,2.3-4.6c0.6-1.6,0.9-3.1,0.9-4.5
	c0-0.9-0.4-1.6-1.1-2c-0.8-0.5-1.6-0.8-2.6-1.1c-1-0.2-2-0.3-3-0.3c-1,0-1.8,0-2.4,0c-4,0-7.6,0.9-10.9,2.7
	c-3.3,1.8-6.5,3.7-9.5,5.8c-0.2,0.2-0.5,0.4-1.1,0.7c-0.5,0.3-1.1,0.7-1.6,1.1c-0.5,0.4-1,0.8-1.4,1.1c-0.4,0.4-0.6,0.7-0.6,0.9
	v25.1L158.5,625.2z"/>
<path d="M203.1,656.5c0-6.8,0.1-13.5,0.3-20.2c0.2-6.7,0.3-13.5,0.3-20.4c0-4-0.2-7.9-0.6-11.9c-0.4-4-0.6-7.9-0.6-11.9
	c0-1.2,0.4-2.3,1.1-3.2c0.7-0.9,1.7-1.3,3-1.3c2.1,0,3.7,0.4,4.8,1.3c1.1,0.9,1.8,2,2.2,3.3c0.4,1.3,0.7,2.8,0.7,4.5
	c0,1.7,0,3.3,0,4.9c0,0.4,0,1.2,0.1,2.6c0,1.4,0.1,2.9,0.2,4.6c0.1,1.6,0.2,3.2,0.2,4.6c0,1.4,0.1,2.3,0.1,2.6v4.4
	c0,5.7-0.1,11.4-0.3,17.1c-0.2,5.6-0.3,11.4-0.3,17.2v5.6c0,0.4,0.1,1,0.2,1.8c0.1,0.7,0.2,1.1,0.3,1.1h1.1l31.4-12.4
	c0.7-0.6,1.3-0.9,1.9-1c0.5,0,1.1-0.1,1.9-0.1c0.4,0,1,0,1.7,0.1c0.7,0,1.4,0.2,2.1,0.4c0.7,0.2,1.2,0.5,1.7,0.9
	c0.5,0.4,0.7,1,0.7,1.8c0,2-1.1,3.8-3.3,5.3c-2.8,1.5-5.7,2.9-8.7,4.2c-3,1.3-6,2.3-9.1,3.1l-0.7,0.5c-4.2,1.1-8.2,2.8-11.8,5
	c-3.7,2.2-7.5,4.2-11.4,6.1h-1.2c-2.4,0-4.1-0.8-5.3-2.4c-1.1-1.6-1.9-3.5-2.2-5.6c-0.4-2.2-0.5-4.4-0.4-6.7
	C203.1,660,203.1,658,203.1,656.5z"/>
<path d="M261.3,668.7c0-5.3,0.4-10.5,1.1-15.7c0.7-5.2,1.3-10.4,1.9-15.6c0-0.3,0-0.9,0.1-1.8c0.1-0.9,0.2-1.9,0.3-3
	c0.1-1.1,0.3-2,0.4-3c0.1-0.9,0.2-1.5,0.2-1.8v-0.5l5.6-41.3c-0.2-1.8,0.1-3.3,0.9-4.7c0.7-1.4,2.1-2.1,4.2-2.1c2.2-0.3,4,0,5.5,0.9
	c1.5,0.8,2.7,1.9,3.6,3.2c1,1.3,1.8,2.8,2.4,4.4c0.6,1.6,1.3,3,2,4.4c0.4,1.2,1,2.7,1.7,4.4c0.7,1.7,1.5,3.8,2.4,6.3
	c0.9,2.6,2,5.7,3.3,9.4c1.3,3.7,2.8,8.2,4.4,13.5l0.5,0.5c0.6-0.4,1.8-0.9,3.5-1.7c1.7-0.8,3.5-1.6,5.4-2.5c1.9-0.9,3.7-1.7,5.4-2.5
	c1.7-0.8,2.9-1.3,3.6-1.6c0.1-0.2,0.3-0.3,0.7-0.5c0.4-0.1,0.7-0.2,0.9-0.3h0.3c0.9,0,1.5,0.3,2,1c0.4,0.7,0.7,1.3,0.7,1.9
	c0,1-0.2,1.8-0.7,2.5c-0.4,0.7-0.9,1.3-1.5,1.9c-0.6,0.6-1.2,1.1-1.9,1.7c-0.7,0.5-1.2,1.1-1.5,1.7l-13.1,6.6
	c-0.4,0.4-0.5,0.8-0.5,1.1c0,0.7,0.4,1.8,1.1,3.3c0.7,1.5,1.3,2.7,1.8,3.6c0.3,0.5,0.7,1.5,1.3,2.9c0.6,1.4,1.3,2.9,2,4.4
	c0.7,1.5,1.4,2.9,2.1,4.3c0.7,1.4,1.1,2.3,1.4,2.8v0.4c0,3.2-1.6,4.8-4.8,4.8c-1,0-2-0.1-3-0.3c-1.1-0.2-1.9-0.9-2.4-1.9l-8.9-18.9
	h-1.2c-3.4,2.6-6.9,5.1-10.7,7.5c-3.8,2.5-7.7,4.6-11.6,6.3c-0.6,3.2-1,6.4-1.1,9.7c-0.1,3.3-0.1,6.5,0.1,9.8
	c-0.7,1-1.4,1.7-2.1,2.2c-0.7,0.5-1.7,0.7-2.9,0.7c-1.2,0-2.2-0.3-2.8-0.9c-0.6-0.6-1.1-1.3-1.3-2.1c-0.3-0.8-0.4-1.7-0.4-2.7
	C261.3,670.4,261.3,669.5,261.3,668.7z M273.1,643.1c2.6-1.1,5.2-2.5,7.7-4.2c2.5-1.8,4.9-3.4,7.2-4.9c0.3-0.2,0.6-0.4,1-0.5
	c0.4-0.2,0.8-0.4,1.1-0.7c0.4-0.3,0.8-0.6,1.3-0.9v-1.1l-12.2-34.7l-0.5-0.5c-0.3,0.5-0.6,2-1,4.5c-0.4,2.5-0.8,5.7-1.3,9.6
	c-0.5,3.9-1,8.4-1.6,13.6c-0.6,5.1-1.2,10.6-1.8,16.4V643.1z"/>
<path d="M354.2,619c-0.1-0.7-0.2-1.6-0.3-2.7c-0.1-1.1-0.3-2.2-0.4-3.2c-0.1-1-0.3-2.2-0.5-3.6h-1.1l-15.1,4.5
	c-0.4,0.7-1.2,1.1-2.2,1.1c-1,0-1.8,0-2.3,0c-1.2,0-2.5-0.6-3.8-1.7c-1.3-1.1-1.9-2.3-1.9-3.6c0-1,0.3-1.9,1-2.8
	c0.7-0.9,1.5-1.6,2.4-1.9l21.3-6.7c0.3-1,0.8-2,1.5-3c0.7-1,1.7-1.5,3-1.5c1.2,0,2.3,0.3,3.1,0.9c0.8,0.6,1.8,1.1,2.8,1.5
	c0.8-0.1,2.1-0.4,4-0.8c1.9-0.4,3.8-0.9,5.9-1.4c2.1-0.5,4-0.9,5.9-1.4c1.9-0.4,3.1-0.7,3.8-0.9c1.1-0.2,1.9-0.4,2.4-0.7
	c0.5-0.3,1.4-0.4,2.5-0.4c1.5,0,3,0.4,4.6,1.3c1.6,0.9,2.4,2.2,2.4,4c0,1.1-0.4,2.1-1.2,3c-0.8,0.8-1.8,1.4-2.9,1.7l-25.1,6.3v1.2
	c0,2.7,0.2,5.4,0.7,8.1c0.5,2.6,0.6,5.3,0.5,7.9l4.5,40.9v2.9c0,1.1,0,2.1-0.1,3.2s-0.2,2.1-0.5,3c-0.3,0.9-0.8,1.6-1.5,2.2
	c-0.7,0.6-1.8,0.9-3.2,0.9c-1.1,0-2.2-0.4-3.4-1.3c-1.2-0.9-1.8-1.9-1.9-3.2l-5-52.5V619z"/>
<path d="M395.1,674.1c-0.9-3.5-1.5-6.9-2-10c-0.4-3.1-0.7-6.5-0.9-10c-0.1-2-0.1-3.8,0-5.2c0.1-1.5-0.1-3.1-0.5-4.8
	c-0.1-0.4-0.3-0.6-0.6-0.8c-0.3-0.2-0.6-0.4-0.9-0.7c-0.3-0.3-0.6-0.6-0.9-1c-0.3-0.4-0.4-1-0.4-1.9c0-0.7,0.2-1.3,0.5-1.9
	c0.3-0.5,0.6-1,0.9-1.5c0.3-0.5,0.6-1,0.9-1.6c0.3-0.6,0.5-1.3,0.5-2.1v-2c0-0.9-0.1-2.4-0.3-4.5c-0.2-2.1-0.4-4.4-0.5-6.7
	c-0.2-2.4-0.3-4.6-0.5-6.7c-0.1-2.1-0.2-3.6-0.3-4.4c-0.1-1.5-0.5-2.8-1.2-4c-0.7-1.1-1.1-2.5-1.1-4c0-2.8,0.6-4.8,1.7-6
	c1.1-1.1,3.2-1.7,6.1-1.7c0.6,0,1.1,0.3,1.5,0.8c0.4,0.5,0.9,0.8,1.4,0.8h0.5c0.3-0.1,0.7-0.2,1.2-0.3c0.5-0.1,0.9-0.2,1.1-0.2
	c7.4-3.2,13.2-5.6,17.3-7.4c4.1-1.8,7.3-3,9.4-3.8c2.1-0.8,3.5-1.2,4.3-1.3c0.7-0.1,1.4,0,1.9,0.3c1.1,0.2,1.8,0.5,2.2,1
	c0.4,0.5,0.6,1.2,0.6,2.2c0,0.9-0.1,1.8-0.4,2.6c-0.3,0.9-0.9,1.5-1.9,2l-17.3,8.3l-0.5,0.5l-14.6,6.2c-0.5,0.2-0.8,0.6-0.9,1.3
	c-0.1,0.7-0.1,1.3-0.1,1.7c0,0.7,0.1,2,0.3,3.8c0.2,1.9,0.4,3.8,0.5,5.8c0.2,2,0.4,3.7,0.6,5.3c0.2,1.5,0.4,2.3,0.5,2.3h0.1l0.1-0.1
	c1-0.7,2.5-1.9,4.6-3.6c2.1-1.7,4.3-3.5,6.5-5.2c2.2-1.8,4.1-3.3,5.8-4.7c1.7-1.4,2.6-2.1,2.6-2.1c1,0,1.9,0.5,2.6,1.5
	c0.8,1,1.2,2,1.2,3c0,1.1-0.2,2.2-0.7,3.6c-0.4,1.3-1.1,2.3-2.1,3l-20.6,18.4c0,0.9,0,1.6-0.1,2.1c0,0.5-0.1,1.1-0.1,1.7
	c0,0.6,0,1,0,1.4c0,3.2,0.2,6.3,0.7,9.5c0.4,3.1,0.7,6.3,0.7,9.5h0.5c0.1,0,0.5-0.4,1.2-1.1c0.7-0.7,1.2-1.3,1.6-1.7
	c0.2-0.3,0.6-0.8,1.3-1.7c0.7-0.9,1.8-2.3,3.4-4.4c1.6-2,3.7-4.7,6.3-8.1c2.6-3.4,6-7.6,10.2-12.7c0.4-0.4,0.9-0.9,1.5-1.6
	c0.7-0.7,1.1-1.1,1.3-1.1c0.3-0.3,0.8-0.4,1.7-0.3c0.8,0,1.4,0.2,1.8,0.3c0.4,0.2,1,0.7,1.7,1.5c0.7,0.8,1.1,1.5,1.1,2.2
	c0,1.1-0.6,2.4-1.7,4.2c-1.1,1.7-2.4,3.5-3.9,5.4c-1.5,1.9-3,3.6-4.5,5.4c-1.5,1.7-2.6,3.1-3.4,4.2c-1.2,1.9-2.7,4.3-4.4,7.1
	c-1.7,2.8-3.6,5.4-5.6,7.9c-2,2.5-4.3,4.7-6.7,6.5c-2.4,1.8-5,2.7-7.7,2.7c-1.3,0-2.3-0.2-2.8-0.7
	C396.7,676.1,395.9,675.3,395.1,674.1z"/>
</svg>
